<?xml version="1.0" encoding="utf-8" standalone="no"?>
<!DOCTYPE svg PUBLIC "-//W3C//DTD SVG 1.1//EN"
  "http://www.w3.org/Graphics/SVG/1.1/DTD/svg11.dtd">
<svg xmlns:xlink="http://www.w3.org/1999/xlink" width="1000.8pt" height="281.690662pt" viewBox="0 0 1000.8 281.690662" xmlns="http://www.w3.org/2000/svg" version="1.1">
 <metadata>
  <rdf:RDF xmlns:dc="http://purl.org/dc/elements/1.1/" xmlns:cc="http://creativecommons.org/ns#" xmlns:rdf="http://www.w3.org/1999/02/22-rdf-syntax-ns#">
   <cc:Work>
    <dc:type rdf:resource="http://purl.org/dc/dcmitype/StillImage"/>
    <dc:date>2025-12-26T02:34:18.322693</dc:date>
    <dc:format>image/svg+xml</dc:format>
    <dc:creator>
     <cc:Agent>
      <dc:title>Matplotlib v3.10.5, https://matplotlib.org/</dc:title>
     </cc:Agent>
    </dc:creator>
   </cc:Work>
  </rdf:RDF>
 </metadata>
 <defs>
  <style type="text/css">*{stroke-linejoin: round; stroke-linecap: butt}</style>
 </defs>
 <g id="figure_1">
  <g id="patch_1">
   <path d="M 0 281.690662 
L 1000.8 281.690662 
L 1000.8 0 
L 0 0 
z
" style="fill: #ffffff"/>
  </g>
  <g id="axes_1">
   <g id="patch_2">
    <path d="M 88.225714 187.801687 
L 208.002857 187.801687 
Q 222.094286 187.801687 222.094286 175.844587 
L 222.094286 104.101988 
Q 222.094286 92.144888 208.002857 92.144888 
L 88.225714 92.144888 
Q 74.134286 92.144888 74.134286 104.101988 
L 74.134286 175.844587 
Q 74.134286 187.801687 88.225714 187.801687 
z
" clip-path="url(#p1ef85a4b99)" style="fill: #95a5a6; opacity: 0.8; stroke: #000000; stroke-width: 2; stroke-linejoin: miter"/>
   </g>
   <g id="patch_3">
    <path d="M 299.597143 187.801687 
L 419.374286 187.801687 
Q 433.465714 187.801687 433.465714 175.844587 
L 433.465714 104.101988 
Q 433.465714 92.144888 419.374286 92.144888 
L 299.597143 92.144888 
Q 285.505714 92.144888 285.505714 104.101988 
L 285.505714 175.844587 
Q 285.505714 187.801687 299.597143 187.801687 
z
" clip-path="url(#p1ef85a4b99)" style="fill: #3498db; opacity: 0.8; stroke: #000000; stroke-width: 2; stroke-linejoin: miter"/>
   </g>
   <g id="patch_4">
    <path d="M 510.968571 187.801687 
L 665.974286 187.801687 
Q 680.065714 187.801687 680.065714 175.844587 
L 680.065714 104.101988 
Q 680.065714 92.144888 665.974286 92.144888 
L 510.968571 92.144888 
Q 496.877143 92.144888 496.877143 104.101988 
L 496.877143 175.844587 
Q 496.877143 187.801687 510.968571 187.801687 
z
" clip-path="url(#p1ef85a4b99)" style="fill: #2ecc71; opacity: 0.8; stroke: #000000; stroke-width: 2; stroke-linejoin: miter"/>
   </g>
   <g id="patch_5">
    <path d="M 757.568571 187.801687 
L 877.345714 187.801687 
Q 891.437143 187.801687 891.437143 175.844587 
L 891.437143 104.101988 
Q 891.437143 92.144888 877.345714 92.144888 
L 757.568571 92.144888 
Q 743.477143 92.144888 743.477143 104.101988 
L 743.477143 175.844587 
Q 743.477143 187.801687 757.568571 187.801687 
z
" clip-path="url(#p1ef85a4b99)" style="fill: #2c3e50; opacity: 0.8; stroke: #000000; stroke-width: 2; stroke-linejoin: miter"/>
   </g>
   <g id="text_1">
    <!-- Database -->
    <g transform="translate(123.659051 136.862522) scale(0.11 -0.11)">
     <defs>
      <path id="Arial-BoldMT-44" d="M 463 4581 
L 2153 4581 
Q 2725 4581 3025 4494 
Q 3428 4375 3715 4072 
Q 4003 3769 4153 3330 
Q 4303 2891 4303 2247 
Q 4303 1681 4163 1272 
Q 3991 772 3672 463 
Q 3431 228 3022 97 
Q 2716 0 2203 0 
L 463 0 
L 463 4581 
z
M 1388 3806 
L 1388 772 
L 2078 772 
Q 2466 772 2638 816 
Q 2863 872 3011 1006 
Q 3159 1141 3253 1448 
Q 3347 1756 3347 2288 
Q 3347 2819 3253 3103 
Q 3159 3388 2990 3547 
Q 2822 3706 2563 3763 
Q 2369 3806 1803 3806 
L 1388 3806 
z
" transform="scale(0.015625)"/>
      <path id="Arial-BoldMT-61" d="M 1116 2306 
L 319 2450 
Q 453 2931 781 3162 
Q 1109 3394 1756 3394 
Q 2344 3394 2631 3255 
Q 2919 3116 3036 2902 
Q 3153 2688 3153 2116 
L 3144 1091 
Q 3144 653 3186 445 
Q 3228 238 3344 0 
L 2475 0 
Q 2441 88 2391 259 
Q 2369 338 2359 363 
Q 2134 144 1878 34 
Q 1622 -75 1331 -75 
Q 819 -75 523 203 
Q 228 481 228 906 
Q 228 1188 362 1408 
Q 497 1628 739 1745 
Q 981 1863 1438 1950 
Q 2053 2066 2291 2166 
L 2291 2253 
Q 2291 2506 2166 2614 
Q 2041 2722 1694 2722 
Q 1459 2722 1328 2630 
Q 1197 2538 1116 2306 
z
M 2291 1594 
Q 2122 1538 1756 1459 
Q 1391 1381 1278 1306 
Q 1106 1184 1106 997 
Q 1106 813 1243 678 
Q 1381 544 1594 544 
Q 1831 544 2047 700 
Q 2206 819 2256 991 
Q 2291 1103 2291 1419 
L 2291 1594 
z
" transform="scale(0.015625)"/>
      <path id="Arial-BoldMT-74" d="M 1981 3319 
L 1981 2619 
L 1381 2619 
L 1381 1281 
Q 1381 875 1398 808 
Q 1416 741 1477 697 
Q 1538 653 1625 653 
Q 1747 653 1978 738 
L 2053 56 
Q 1747 -75 1359 -75 
Q 1122 -75 931 4 
Q 741 84 652 211 
Q 563 338 528 553 
Q 500 706 500 1172 
L 500 2619 
L 97 2619 
L 97 3319 
L 500 3319 
L 500 3978 
L 1381 4491 
L 1381 3319 
L 1981 3319 
z
" transform="scale(0.015625)"/>
      <path id="Arial-BoldMT-62" d="M 422 0 
L 422 4581 
L 1300 4581 
L 1300 2931 
Q 1706 3394 2263 3394 
Q 2869 3394 3266 2955 
Q 3663 2516 3663 1694 
Q 3663 844 3258 384 
Q 2853 -75 2275 -75 
Q 1991 -75 1714 67 
Q 1438 209 1238 488 
L 1238 0 
L 422 0 
z
M 1294 1731 
Q 1294 1216 1456 969 
Q 1684 619 2063 619 
Q 2353 619 2558 867 
Q 2763 1116 2763 1650 
Q 2763 2219 2556 2470 
Q 2350 2722 2028 2722 
Q 1713 2722 1503 2476 
Q 1294 2231 1294 1731 
z
" transform="scale(0.015625)"/>
      <path id="Arial-BoldMT-73" d="M 150 947 
L 1031 1081 
Q 1088 825 1259 692 
Q 1431 559 1741 559 
Q 2081 559 2253 684 
Q 2369 772 2369 919 
Q 2369 1019 2306 1084 
Q 2241 1147 2013 1200 
Q 950 1434 666 1628 
Q 272 1897 272 2375 
Q 272 2806 612 3100 
Q 953 3394 1669 3394 
Q 2350 3394 2681 3172 
Q 3013 2950 3138 2516 
L 2309 2363 
Q 2256 2556 2107 2659 
Q 1959 2763 1684 2763 
Q 1338 2763 1188 2666 
Q 1088 2597 1088 2488 
Q 1088 2394 1175 2328 
Q 1294 2241 1995 2081 
Q 2697 1922 2975 1691 
Q 3250 1456 3250 1038 
Q 3250 581 2869 253 
Q 2488 -75 1741 -75 
Q 1063 -75 667 200 
Q 272 475 150 947 
z
" transform="scale(0.015625)"/>
      <path id="Arial-BoldMT-65" d="M 2381 1056 
L 3256 909 
Q 3088 428 2723 176 
Q 2359 -75 1813 -75 
Q 947 -75 531 491 
Q 203 944 203 1634 
Q 203 2459 634 2926 
Q 1066 3394 1725 3394 
Q 2466 3394 2894 2905 
Q 3322 2416 3303 1406 
L 1103 1406 
Q 1113 1016 1316 798 
Q 1519 581 1822 581 
Q 2028 581 2168 693 
Q 2309 806 2381 1056 
z
M 2431 1944 
Q 2422 2325 2234 2523 
Q 2047 2722 1778 2722 
Q 1491 2722 1303 2513 
Q 1116 2303 1119 1944 
L 2431 1944 
z
" transform="scale(0.015625)"/>
     </defs>
     <use xlink:href="#Arial-BoldMT-44"/>
     <use xlink:href="#Arial-BoldMT-61" transform="translate(72.216797 0)"/>
     <use xlink:href="#Arial-BoldMT-74" transform="translate(127.832031 0)"/>
     <use xlink:href="#Arial-BoldMT-61" transform="translate(161.132812 0)"/>
     <use xlink:href="#Arial-BoldMT-62" transform="translate(216.748047 0)"/>
     <use xlink:href="#Arial-BoldMT-61" transform="translate(277.832031 0)"/>
     <use xlink:href="#Arial-BoldMT-73" transform="translate(333.447266 0)"/>
     <use xlink:href="#Arial-BoldMT-65" transform="translate(389.0625 0)"/>
    </g>
    <!-- (SQL) -->
    <g transform="translate(133.145692 148.642491) scale(0.11 -0.11)">
     <defs>
      <path id="Arial-BoldMT-28" d="M 1916 -1347 
L 1313 -1347 
Q 834 -625 584 153 
Q 334 931 334 1659 
Q 334 2563 644 3369 
Q 913 4069 1325 4659 
L 1925 4659 
Q 1497 3713 1336 3048 
Q 1175 2384 1175 1641 
Q 1175 1128 1270 590 
Q 1366 53 1531 -431 
Q 1641 -750 1916 -1347 
z
" transform="scale(0.015625)"/>
      <path id="Arial-BoldMT-53" d="M 231 1491 
L 1131 1578 
Q 1213 1125 1461 912 
Q 1709 700 2131 700 
Q 2578 700 2804 889 
Q 3031 1078 3031 1331 
Q 3031 1494 2936 1608 
Q 2841 1722 2603 1806 
Q 2441 1863 1863 2006 
Q 1119 2191 819 2459 
Q 397 2838 397 3381 
Q 397 3731 595 4036 
Q 794 4341 1167 4500 
Q 1541 4659 2069 4659 
Q 2931 4659 3367 4281 
Q 3803 3903 3825 3272 
L 2900 3231 
Q 2841 3584 2645 3739 
Q 2450 3894 2059 3894 
Q 1656 3894 1428 3728 
Q 1281 3622 1281 3444 
Q 1281 3281 1419 3166 
Q 1594 3019 2269 2859 
Q 2944 2700 3267 2529 
Q 3591 2359 3773 2064 
Q 3956 1769 3956 1334 
Q 3956 941 3737 597 
Q 3519 253 3119 86 
Q 2719 -81 2122 -81 
Q 1253 -81 787 320 
Q 322 722 231 1491 
z
" transform="scale(0.015625)"/>
      <path id="Arial-BoldMT-51" d="M 4153 581 
Q 4494 338 4894 194 
L 4553 -459 
Q 4344 -397 4144 -288 
Q 4100 -266 3528 119 
Q 3078 -78 2531 -78 
Q 1475 -78 876 544 
Q 278 1166 278 2291 
Q 278 3413 878 4036 
Q 1478 4659 2506 4659 
Q 3525 4659 4122 4036 
Q 4719 3413 4719 2291 
Q 4719 1697 4553 1247 
Q 4428 903 4153 581 
z
M 3409 1103 
Q 3588 1313 3677 1609 
Q 3766 1906 3766 2291 
Q 3766 3084 3416 3476 
Q 3066 3869 2500 3869 
Q 1934 3869 1582 3475 
Q 1231 3081 1231 2291 
Q 1231 1488 1582 1089 
Q 1934 691 2472 691 
Q 2672 691 2850 756 
Q 2569 941 2278 1044 
L 2538 1572 
Q 2994 1416 3409 1103 
z
" transform="scale(0.015625)"/>
      <path id="Arial-BoldMT-4c" d="M 491 0 
L 491 4544 
L 1416 4544 
L 1416 772 
L 3716 772 
L 3716 0 
L 491 0 
z
" transform="scale(0.015625)"/>
      <path id="Arial-BoldMT-29" d="M 216 -1347 
Q 475 -791 581 -494 
Q 688 -197 778 190 
Q 869 578 912 926 
Q 956 1275 956 1641 
Q 956 2384 797 3048 
Q 638 3713 209 4659 
L 806 4659 
Q 1278 3988 1539 3234 
Q 1800 2481 1800 1706 
Q 1800 1053 1594 306 
Q 1359 -531 822 -1347 
L 216 -1347 
z
" transform="scale(0.015625)"/>
     </defs>
     <use xlink:href="#Arial-BoldMT-28"/>
     <use xlink:href="#Arial-BoldMT-53" transform="translate(33.300781 0)"/>
     <use xlink:href="#Arial-BoldMT-51" transform="translate(100 0)"/>
     <use xlink:href="#Arial-BoldMT-4c" transform="translate(177.783203 0)"/>
     <use xlink:href="#Arial-BoldMT-29" transform="translate(238.867188 0)"/>
    </g>
   </g>
   <g id="text_2">
    <!-- Backend -->
    <g transform="translate(336.561027 136.862522) scale(0.11 -0.11)">
     <defs>
      <path id="Arial-BoldMT-42" d="M 469 4581 
L 2300 4581 
Q 2844 4581 3111 4536 
Q 3378 4491 3589 4347 
Q 3800 4203 3940 3964 
Q 4081 3725 4081 3428 
Q 4081 3106 3907 2837 
Q 3734 2569 3438 2434 
Q 3856 2313 4081 2019 
Q 4306 1725 4306 1328 
Q 4306 1016 4161 720 
Q 4016 425 3764 248 
Q 3513 72 3144 31 
Q 2913 6 2028 0 
L 469 0 
L 469 4581 
z
M 1394 3819 
L 1394 2759 
L 2000 2759 
Q 2541 2759 2672 2775 
Q 2909 2803 3045 2939 
Q 3181 3075 3181 3297 
Q 3181 3509 3064 3642 
Q 2947 3775 2716 3803 
Q 2578 3819 1925 3819 
L 1394 3819 
z
M 1394 1997 
L 1394 772 
L 2250 772 
Q 2750 772 2884 800 
Q 3091 838 3220 983 
Q 3350 1128 3350 1372 
Q 3350 1578 3250 1722 
Q 3150 1866 2961 1931 
Q 2772 1997 2141 1997 
L 1394 1997 
z
" transform="scale(0.015625)"/>
      <path id="Arial-BoldMT-63" d="M 3353 2338 
L 2488 2181 
Q 2444 2441 2289 2572 
Q 2134 2703 1888 2703 
Q 1559 2703 1364 2476 
Q 1169 2250 1169 1719 
Q 1169 1128 1367 884 
Q 1566 641 1900 641 
Q 2150 641 2309 783 
Q 2469 925 2534 1272 
L 3397 1125 
Q 3263 531 2881 228 
Q 2500 -75 1859 -75 
Q 1131 -75 698 384 
Q 266 844 266 1656 
Q 266 2478 700 2936 
Q 1134 3394 1875 3394 
Q 2481 3394 2839 3133 
Q 3197 2872 3353 2338 
z
" transform="scale(0.015625)"/>
      <path id="Arial-BoldMT-6b" d="M 428 0 
L 428 4581 
L 1306 4581 
L 1306 2150 
L 2334 3319 
L 3416 3319 
L 2281 2106 
L 3497 0 
L 2550 0 
L 1716 1491 
L 1306 1063 
L 1306 0 
L 428 0 
z
" transform="scale(0.015625)"/>
      <path id="Arial-BoldMT-6e" d="M 3478 0 
L 2600 0 
L 2600 1694 
Q 2600 2231 2544 2389 
Q 2488 2547 2361 2634 
Q 2234 2722 2056 2722 
Q 1828 2722 1647 2597 
Q 1466 2472 1398 2265 
Q 1331 2059 1331 1503 
L 1331 0 
L 453 0 
L 453 3319 
L 1269 3319 
L 1269 2831 
Q 1703 3394 2363 3394 
Q 2653 3394 2893 3289 
Q 3134 3184 3257 3021 
Q 3381 2859 3429 2653 
Q 3478 2447 3478 2063 
L 3478 0 
z
" transform="scale(0.015625)"/>
      <path id="Arial-BoldMT-64" d="M 3503 0 
L 2688 0 
L 2688 488 
Q 2484 203 2207 64 
Q 1931 -75 1650 -75 
Q 1078 -75 670 386 
Q 263 847 263 1672 
Q 263 2516 659 2955 
Q 1056 3394 1663 3394 
Q 2219 3394 2625 2931 
L 2625 4581 
L 3503 4581 
L 3503 0 
z
M 1159 1731 
Q 1159 1200 1306 963 
Q 1519 619 1900 619 
Q 2203 619 2415 876 
Q 2628 1134 2628 1647 
Q 2628 2219 2422 2470 
Q 2216 2722 1894 2722 
Q 1581 2722 1370 2473 
Q 1159 2225 1159 1731 
z
" transform="scale(0.015625)"/>
     </defs>
     <use xlink:href="#Arial-BoldMT-42"/>
     <use xlink:href="#Arial-BoldMT-61" transform="translate(72.216797 0)"/>
     <use xlink:href="#Arial-BoldMT-63" transform="translate(127.832031 0)"/>
     <use xlink:href="#Arial-BoldMT-6b" transform="translate(183.447266 0)"/>
     <use xlink:href="#Arial-BoldMT-65" transform="translate(239.0625 0)"/>
     <use xlink:href="#Arial-BoldMT-6e" transform="translate(294.677734 0)"/>
     <use xlink:href="#Arial-BoldMT-64" transform="translate(355.761719 0)"/>
    </g>
    <!-- (JSON) -->
    <g transform="translate(340.845871 148.642491) scale(0.11 -0.11)">
     <defs>
      <path id="Arial-BoldMT-4a" d="M 2119 4581 
L 3041 4581 
L 3041 1681 
Q 3041 1113 2941 806 
Q 2806 406 2453 164 
Q 2100 -78 1522 -78 
Q 844 -78 478 301 
Q 113 681 109 1416 
L 981 1516 
Q 997 1122 1097 959 
Q 1247 713 1553 713 
Q 1863 713 1991 889 
Q 2119 1066 2119 1622 
L 2119 4581 
z
" transform="scale(0.015625)"/>
      <path id="Arial-BoldMT-4f" d="M 278 2263 
Q 278 2963 488 3438 
Q 644 3788 914 4066 
Q 1184 4344 1506 4478 
Q 1934 4659 2494 4659 
Q 3506 4659 4114 4031 
Q 4722 3403 4722 2284 
Q 4722 1175 4119 548 
Q 3516 -78 2506 -78 
Q 1484 -78 881 545 
Q 278 1169 278 2263 
z
M 1231 2294 
Q 1231 1516 1590 1114 
Q 1950 713 2503 713 
Q 3056 713 3411 1111 
Q 3766 1509 3766 2306 
Q 3766 3094 3420 3481 
Q 3075 3869 2503 3869 
Q 1931 3869 1581 3476 
Q 1231 3084 1231 2294 
z
" transform="scale(0.015625)"/>
      <path id="Arial-BoldMT-4e" d="M 475 0 
L 475 4581 
L 1375 4581 
L 3250 1522 
L 3250 4581 
L 4109 4581 
L 4109 0 
L 3181 0 
L 1334 2988 
L 1334 0 
L 475 0 
z
" transform="scale(0.015625)"/>
     </defs>
     <use xlink:href="#Arial-BoldMT-28"/>
     <use xlink:href="#Arial-BoldMT-4a" transform="translate(33.300781 0)"/>
     <use xlink:href="#Arial-BoldMT-53" transform="translate(88.916016 0)"/>
     <use xlink:href="#Arial-BoldMT-4f" transform="translate(155.615234 0)"/>
     <use xlink:href="#Arial-BoldMT-4e" transform="translate(233.398438 0)"/>
     <use xlink:href="#Arial-BoldMT-29" transform="translate(305.615234 0)"/>
    </g>
   </g>
   <g id="text_3">
    <!-- TOON -->
    <g transform="translate(572.680413 137.015147) scale(0.11 -0.11)">
     <defs>
      <path id="Arial-BoldMT-54" d="M 1497 0 
L 1497 3806 
L 138 3806 
L 138 4581 
L 3778 4581 
L 3778 3806 
L 2422 3806 
L 2422 0 
L 1497 0 
z
" transform="scale(0.015625)"/>
     </defs>
     <use xlink:href="#Arial-BoldMT-54"/>
     <use xlink:href="#Arial-BoldMT-4f" transform="translate(59.333984 0)"/>
     <use xlink:href="#Arial-BoldMT-4f" transform="translate(137.117188 0)"/>
     <use xlink:href="#Arial-BoldMT-4e" transform="translate(214.900391 0)"/>
    </g>
    <!-- Converter -->
    <g transform="translate(562.492522 148.634241) scale(0.11 -0.11)">
     <defs>
      <path id="Arial-BoldMT-43" d="M 3397 1684 
L 4294 1400 
Q 4088 650 3608 286 
Q 3128 -78 2391 -78 
Q 1478 -78 890 545 
Q 303 1169 303 2250 
Q 303 3394 893 4026 
Q 1484 4659 2447 4659 
Q 3288 4659 3813 4163 
Q 4125 3869 4281 3319 
L 3366 3100 
Q 3284 3456 3026 3662 
Q 2769 3869 2400 3869 
Q 1891 3869 1573 3503 
Q 1256 3138 1256 2319 
Q 1256 1450 1568 1081 
Q 1881 713 2381 713 
Q 2750 713 3015 947 
Q 3281 1181 3397 1684 
z
" transform="scale(0.015625)"/>
      <path id="Arial-BoldMT-6f" d="M 256 1706 
Q 256 2144 472 2553 
Q 688 2963 1083 3178 
Q 1478 3394 1966 3394 
Q 2719 3394 3200 2905 
Q 3681 2416 3681 1669 
Q 3681 916 3195 420 
Q 2709 -75 1972 -75 
Q 1516 -75 1102 131 
Q 688 338 472 736 
Q 256 1134 256 1706 
z
M 1156 1659 
Q 1156 1166 1390 903 
Q 1625 641 1969 641 
Q 2313 641 2545 903 
Q 2778 1166 2778 1666 
Q 2778 2153 2545 2415 
Q 2313 2678 1969 2678 
Q 1625 2678 1390 2415 
Q 1156 2153 1156 1659 
z
" transform="scale(0.015625)"/>
      <path id="Arial-BoldMT-76" d="M 1372 0 
L 34 3319 
L 956 3319 
L 1581 1625 
L 1763 1059 
Q 1834 1275 1853 1344 
Q 1897 1484 1947 1625 
L 2578 3319 
L 3481 3319 
L 2163 0 
L 1372 0 
z
" transform="scale(0.015625)"/>
      <path id="Arial-BoldMT-72" d="M 1300 0 
L 422 0 
L 422 3319 
L 1238 3319 
L 1238 2847 
Q 1447 3181 1614 3287 
Q 1781 3394 1994 3394 
Q 2294 3394 2572 3228 
L 2300 2463 
Q 2078 2606 1888 2606 
Q 1703 2606 1575 2504 
Q 1447 2403 1373 2137 
Q 1300 1872 1300 1025 
L 1300 0 
z
" transform="scale(0.015625)"/>
     </defs>
     <use xlink:href="#Arial-BoldMT-43"/>
     <use xlink:href="#Arial-BoldMT-6f" transform="translate(72.216797 0)"/>
     <use xlink:href="#Arial-BoldMT-6e" transform="translate(133.300781 0)"/>
     <use xlink:href="#Arial-BoldMT-76" transform="translate(194.384766 0)"/>
     <use xlink:href="#Arial-BoldMT-65" transform="translate(250 0)"/>
     <use xlink:href="#Arial-BoldMT-72" transform="translate(305.615234 0)"/>
     <use xlink:href="#Arial-BoldMT-74" transform="translate(344.53125 0)"/>
     <use xlink:href="#Arial-BoldMT-65" transform="translate(377.832031 0)"/>
     <use xlink:href="#Arial-BoldMT-72" transform="translate(433.447266 0)"/>
    </g>
   </g>
   <g id="text_4">
    <!-- LLM API -->
    <g style="fill: #ffffff" transform="translate(795.66683 136.862522) scale(0.11 -0.11)">
     <defs>
      <path id="Arial-BoldMT-4d" d="M 453 0 
L 453 4581 
L 1838 4581 
L 2669 1456 
L 3491 4581 
L 4878 4581 
L 4878 0 
L 4019 0 
L 4019 3606 
L 3109 0 
L 2219 0 
L 1313 3606 
L 1313 0 
L 453 0 
z
" transform="scale(0.015625)"/>
      <path id="Arial-BoldMT-20" transform="scale(0.015625)"/>
      <path id="Arial-BoldMT-41" d="M 4597 0 
L 3591 0 
L 3191 1041 
L 1359 1041 
L 981 0 
L 0 0 
L 1784 4581 
L 2763 4581 
L 4597 0 
z
M 2894 1813 
L 2263 3513 
L 1644 1813 
L 2894 1813 
z
" transform="scale(0.015625)"/>
      <path id="Arial-BoldMT-50" d="M 466 0 
L 466 4581 
L 1950 4581 
Q 2794 4581 3050 4513 
Q 3444 4409 3709 4064 
Q 3975 3719 3975 3172 
Q 3975 2750 3822 2462 
Q 3669 2175 3433 2011 
Q 3197 1847 2953 1794 
Q 2622 1728 1994 1728 
L 1391 1728 
L 1391 0 
L 466 0 
z
M 1391 3806 
L 1391 2506 
L 1897 2506 
Q 2444 2506 2628 2578 
Q 2813 2650 2917 2803 
Q 3022 2956 3022 3159 
Q 3022 3409 2875 3571 
Q 2728 3734 2503 3775 
Q 2338 3806 1838 3806 
L 1391 3806 
z
" transform="scale(0.015625)"/>
      <path id="Arial-BoldMT-49" d="M 438 0 
L 438 4581 
L 1363 4581 
L 1363 0 
L 438 0 
z
" transform="scale(0.015625)"/>
     </defs>
     <use xlink:href="#Arial-BoldMT-4c"/>
     <use xlink:href="#Arial-BoldMT-4c" transform="translate(61.083984 0)"/>
     <use xlink:href="#Arial-BoldMT-4d" transform="translate(122.167969 0)"/>
     <use xlink:href="#Arial-BoldMT-20" transform="translate(205.46875 0)"/>
     <use xlink:href="#Arial-BoldMT-41" transform="translate(229.501953 0)"/>
     <use xlink:href="#Arial-BoldMT-50" transform="translate(301.71875 0)"/>
     <use xlink:href="#Arial-BoldMT-49" transform="translate(368.417969 0)"/>
    </g>
    <!-- (Prompt) -->
    <g style="fill: #ffffff" transform="translate(794.544487 148.642491) scale(0.11 -0.11)">
     <defs>
      <path id="Arial-BoldMT-6d" d="M 394 3319 
L 1203 3319 
L 1203 2866 
Q 1638 3394 2238 3394 
Q 2556 3394 2790 3262 
Q 3025 3131 3175 2866 
Q 3394 3131 3647 3262 
Q 3900 3394 4188 3394 
Q 4553 3394 4806 3245 
Q 5059 3097 5184 2809 
Q 5275 2597 5275 2122 
L 5275 0 
L 4397 0 
L 4397 1897 
Q 4397 2391 4306 2534 
Q 4184 2722 3931 2722 
Q 3747 2722 3584 2609 
Q 3422 2497 3350 2280 
Q 3278 2063 3278 1594 
L 3278 0 
L 2400 0 
L 2400 1819 
Q 2400 2303 2353 2443 
Q 2306 2584 2207 2653 
Q 2109 2722 1941 2722 
Q 1738 2722 1575 2612 
Q 1413 2503 1342 2297 
Q 1272 2091 1272 1613 
L 1272 0 
L 394 0 
L 394 3319 
z
" transform="scale(0.015625)"/>
      <path id="Arial-BoldMT-70" d="M 434 3319 
L 1253 3319 
L 1253 2831 
Q 1413 3081 1684 3237 
Q 1956 3394 2288 3394 
Q 2866 3394 3269 2941 
Q 3672 2488 3672 1678 
Q 3672 847 3265 386 
Q 2859 -75 2281 -75 
Q 2006 -75 1782 34 
Q 1559 144 1313 409 
L 1313 -1263 
L 434 -1263 
L 434 3319 
z
M 1303 1716 
Q 1303 1156 1525 889 
Q 1747 622 2066 622 
Q 2372 622 2575 867 
Q 2778 1113 2778 1672 
Q 2778 2194 2568 2447 
Q 2359 2700 2050 2700 
Q 1728 2700 1515 2451 
Q 1303 2203 1303 1716 
z
" transform="scale(0.015625)"/>
     </defs>
     <use xlink:href="#Arial-BoldMT-28"/>
     <use xlink:href="#Arial-BoldMT-50" transform="translate(33.300781 0)"/>
     <use xlink:href="#Arial-BoldMT-72" transform="translate(100 0)"/>
     <use xlink:href="#Arial-BoldMT-6f" transform="translate(138.916016 0)"/>
     <use xlink:href="#Arial-BoldMT-6d" transform="translate(200 0)"/>
     <use xlink:href="#Arial-BoldMT-70" transform="translate(288.916016 0)"/>
     <use xlink:href="#Arial-BoldMT-74" transform="translate(350 0)"/>
     <use xlink:href="#Arial-BoldMT-29" transform="translate(383.300781 0)"/>
    </g>
   </g>
   <g id="patch_6">
    <path d="M 220.571097 139.973287 
Q 253.799128 139.973287 284.791092 139.973287 
" style="fill: none; stroke: #000000; stroke-width: 2; stroke-linecap: round"/>
    <path d="M 280.791092 137.973287 
L 284.791092 139.973287 
L 280.791092 141.973287 
" style="fill: none; stroke: #000000; stroke-width: 2; stroke-linecap: round"/>
   </g>
   <g id="patch_7">
    <path d="M 431.942526 139.973287 
Q 465.170557 139.973287 496.16252 139.973287 
" style="fill: none; stroke: #000000; stroke-width: 2; stroke-linecap: round"/>
    <path d="M 492.16252 137.973287 
L 496.16252 139.973287 
L 492.16252 141.973287 
" style="fill: none; stroke: #000000; stroke-width: 2; stroke-linecap: round"/>
   </g>
   <g id="patch_8">
    <path d="M 678.542526 139.973287 
Q 711.770557 139.973287 742.76252 139.973287 
" style="fill: none; stroke: #000000; stroke-width: 2; stroke-linecap: round"/>
    <path d="M 738.76252 137.973287 
L 742.76252 139.973287 
L 738.76252 141.973287 
" style="fill: none; stroke: #000000; stroke-width: 2; stroke-linecap: round"/>
   </g>
   <g id="text_5">
    <!-- Query -->
    <g style="fill: #262626" transform="translate(241.546641 202.748062) scale(0.09 -0.09)">
     <defs>
      <path id="Arial-ItalicMT-51" d="M 3869 369 
Q 4100 94 4494 -163 
L 4222 -525 
Q 3806 -253 3475 134 
Q 3009 -84 2588 -84 
Q 2250 -84 1847 44 
Q 1444 172 1172 431 
Q 900 691 745 1098 
Q 591 1506 591 2000 
Q 591 2597 819 3144 
Q 1009 3594 1314 3920 
Q 1619 4247 1981 4425 
Q 2459 4659 3016 4659 
Q 3872 4659 4411 4101 
Q 4950 3544 4950 2606 
Q 4950 1916 4662 1333 
Q 4375 750 3869 369 
z
M 3494 763 
Q 3872 1056 4106 1570 
Q 4341 2084 4341 2641 
Q 4341 3334 3959 3742 
Q 3578 4150 3025 4150 
Q 2563 4150 2134 3879 
Q 1706 3609 1450 3087 
Q 1194 2566 1194 1950 
Q 1194 1178 1675 756 
Q 2050 428 2478 428 
Q 2819 428 3091 534 
Q 2806 794 2506 950 
L 2728 1331 
Q 2931 1244 3095 1123 
Q 3259 1003 3494 763 
z
" transform="scale(0.015625)"/>
      <path id="Arial-ItalicMT-75" d="M 2478 600 
Q 1881 -75 1256 -75 
Q 872 -75 636 145 
Q 400 366 400 684 
Q 400 894 506 1403 
L 906 3319 
L 1472 3319 
L 1028 1197 
Q 972 931 972 784 
Q 972 597 1086 492 
Q 1200 388 1422 388 
Q 1659 388 1886 503 
Q 2113 619 2277 816 
Q 2441 1013 2544 1281 
Q 2613 1453 2703 1884 
L 3003 3319 
L 3569 3319 
L 2875 0 
L 2353 0 
L 2478 600 
z
" transform="scale(0.015625)"/>
      <path id="Arial-ItalicMT-65" d="M 2650 1128 
L 3200 1072 
Q 3081 663 2654 294 
Q 2228 -75 1638 -75 
Q 1269 -75 961 95 
Q 653 266 492 591 
Q 331 916 331 1331 
Q 331 1875 582 2386 
Q 834 2897 1234 3145 
Q 1634 3394 2100 3394 
Q 2694 3394 3048 3025 
Q 3403 2656 3403 2019 
Q 3403 1775 3359 1519 
L 916 1519 
Q 903 1422 903 1344 
Q 903 878 1117 633 
Q 1331 388 1641 388 
Q 1931 388 2212 578 
Q 2494 769 2650 1128 
z
M 1006 1950 
L 2869 1950 
Q 2872 2038 2872 2075 
Q 2872 2500 2659 2726 
Q 2447 2953 2113 2953 
Q 1750 2953 1451 2703 
Q 1153 2453 1006 1950 
z
" transform="scale(0.015625)"/>
      <path id="Arial-ItalicMT-72" d="M 213 0 
L 906 3319 
L 1406 3319 
L 1266 2641 
Q 1522 3025 1767 3209 
Q 2013 3394 2269 3394 
Q 2438 3394 2684 3272 
L 2453 2747 
Q 2306 2853 2131 2853 
Q 1834 2853 1521 2522 
Q 1209 2191 1031 1331 
L 750 0 
L 213 0 
z
" transform="scale(0.015625)"/>
      <path id="Arial-ItalicMT-79" d="M 0 -1281 
L 34 -750 
Q 209 -800 375 -800 
Q 547 -800 653 -722 
Q 791 -619 953 -334 
L 1134 -9 
L 581 3319 
L 1138 3319 
L 1388 1641 
Q 1463 1144 1516 647 
L 3000 3319 
L 3591 3319 
L 1475 -441 
Q 1169 -991 931 -1169 
Q 694 -1347 384 -1347 
Q 188 -1347 0 -1281 
z
" transform="scale(0.015625)"/>
     </defs>
     <use xlink:href="#Arial-ItalicMT-51"/>
     <use xlink:href="#Arial-ItalicMT-75" transform="translate(77.783203 0)"/>
     <use xlink:href="#Arial-ItalicMT-65" transform="translate(133.398438 0)"/>
     <use xlink:href="#Arial-ItalicMT-72" transform="translate(189.013672 0)"/>
     <use xlink:href="#Arial-ItalicMT-79" transform="translate(222.314453 0)"/>
    </g>
   </g>
   <g id="text_6">
    <!-- Data -->
    <g style="fill: #262626" transform="translate(455.666585 202.748062) scale(0.09 -0.09)">
     <defs>
      <path id="Arial-ItalicMT-44" d="M 284 0 
L 1241 4581 
L 2622 4581 
Q 3119 4581 3381 4509 
Q 3756 4413 4022 4164 
Q 4288 3916 4422 3544 
Q 4556 3172 4556 2709 
Q 4556 2156 4389 1701 
Q 4222 1247 3951 901 
Q 3681 556 3386 361 
Q 3091 166 2688 72 
Q 2381 0 1934 0 
L 284 0 
z
M 1006 519 
L 1731 519 
Q 2222 519 2603 609 
Q 2841 666 3009 775 
Q 3231 916 3413 1147 
Q 3650 1453 3792 1845 
Q 3934 2238 3934 2738 
Q 3934 3294 3740 3592 
Q 3547 3891 3247 3988 
Q 3025 4059 2556 4059 
L 1747 4059 
L 1006 519 
z
" transform="scale(0.015625)"/>
      <path id="Arial-ItalicMT-61" d="M 2450 413 
Q 2156 159 1884 42 
Q 1613 -75 1303 -75 
Q 844 -75 562 195 
Q 281 466 281 888 
Q 281 1166 407 1380 
Q 534 1594 743 1723 
Q 953 1853 1256 1909 
Q 1447 1947 1980 1969 
Q 2513 1991 2744 2081 
Q 2809 2313 2809 2466 
Q 2809 2663 2666 2775 
Q 2469 2931 2091 2931 
Q 1734 2931 1507 2773 
Q 1281 2616 1178 2325 
L 606 2375 
Q 781 2869 1161 3131 
Q 1541 3394 2119 3394 
Q 2734 3394 3094 3100 
Q 3369 2881 3369 2531 
Q 3369 2266 3291 1916 
L 3106 1091 
Q 3019 697 3019 450 
Q 3019 294 3088 0 
L 2516 0 
Q 2469 163 2450 413 
z
M 2659 1681 
Q 2541 1634 2405 1609 
Q 2269 1584 1950 1556 
Q 1456 1513 1253 1445 
Q 1050 1378 947 1231 
Q 844 1084 844 906 
Q 844 669 1008 516 
Q 1172 363 1475 363 
Q 1756 363 2015 511 
Q 2275 659 2425 925 
Q 2575 1191 2659 1681 
z
" transform="scale(0.015625)"/>
      <path id="Arial-ItalicMT-74" d="M 1534 459 
L 1441 -3 
Q 1238 -56 1047 -56 
Q 709 -56 509 109 
Q 359 234 359 450 
Q 359 559 441 953 
L 844 2881 
L 397 2881 
L 488 3319 
L 934 3319 
L 1106 4134 
L 1753 4525 
L 1500 3319 
L 2056 3319 
L 1963 2881 
L 1409 2881 
L 1025 1047 
Q 953 697 953 628 
Q 953 528 1011 475 
Q 1069 422 1200 422 
Q 1388 422 1534 459 
z
" transform="scale(0.015625)"/>
     </defs>
     <use xlink:href="#Arial-ItalicMT-44"/>
     <use xlink:href="#Arial-ItalicMT-61" transform="translate(72.216797 0)"/>
     <use xlink:href="#Arial-ItalicMT-74" transform="translate(127.832031 0)"/>
     <use xlink:href="#Arial-ItalicMT-61" transform="translate(155.615234 0)"/>
    </g>
   </g>
   <g id="text_7">
    <!-- Optimized -->
    <g style="fill: #262626" transform="translate(691.515804 202.748062) scale(0.09 -0.09)">
     <defs>
      <path id="Arial-ItalicMT-4f" d="M 584 1919 
Q 584 3144 1292 3901 
Q 2000 4659 3009 4659 
Q 3866 4659 4405 4101 
Q 4944 3544 4944 2606 
Q 4944 1938 4672 1366 
Q 4469 938 4159 627 
Q 3850 316 3497 147 
Q 3028 -78 2503 -78 
Q 1953 -78 1501 184 
Q 1050 447 817 917 
Q 584 1388 584 1919 
z
M 1188 1888 
Q 1188 1484 1355 1146 
Q 1522 809 1853 618 
Q 2184 428 2550 428 
Q 2903 428 3222 595 
Q 3541 763 3792 1061 
Q 4044 1359 4189 1795 
Q 4334 2231 4334 2653 
Q 4334 3338 3951 3744 
Q 3569 4150 3006 4150 
Q 2288 4150 1738 3536 
Q 1188 2922 1188 1888 
z
" transform="scale(0.015625)"/>
      <path id="Arial-ItalicMT-70" d="M -66 -1272 
L 894 3319 
L 1416 3319 
L 1319 2856 
Q 1609 3159 1839 3276 
Q 2069 3394 2325 3394 
Q 2800 3394 3112 3048 
Q 3425 2703 3425 2059 
Q 3425 1541 3253 1114 
Q 3081 688 2831 428 
Q 2581 169 2325 47 
Q 2069 -75 1800 -75 
Q 1203 -75 875 531 
L 500 -1272 
L -66 -1272 
z
M 1053 1356 
Q 1053 984 1106 841 
Q 1184 638 1362 513 
Q 1541 388 1775 388 
Q 2263 388 2563 936 
Q 2863 1484 2863 2056 
Q 2863 2478 2661 2708 
Q 2459 2938 2159 2938 
Q 1944 2938 1759 2823 
Q 1575 2709 1417 2482 
Q 1259 2256 1156 1928 
Q 1053 1600 1053 1356 
z
" transform="scale(0.015625)"/>
      <path id="Arial-ItalicMT-69" d="M 1016 3941 
L 1150 4581 
L 1713 4581 
L 1578 3941 
L 1016 3941 
z
M 191 0 
L 884 3319 
L 1450 3319 
L 756 0 
L 191 0 
z
" transform="scale(0.015625)"/>
      <path id="Arial-ItalicMT-6d" d="M 209 0 
L 903 3319 
L 1469 3319 
L 1353 2772 
Q 1669 3125 1917 3259 
Q 2166 3394 2456 3394 
Q 2766 3394 2973 3230 
Q 3181 3066 3247 2772 
Q 3500 3084 3779 3239 
Q 4059 3394 4369 3394 
Q 4784 3394 4992 3197 
Q 5200 3000 5200 2644 
Q 5200 2491 5128 2138 
L 4681 0 
L 4116 0 
L 4572 2194 
Q 4631 2463 4631 2578 
Q 4631 2741 4528 2834 
Q 4425 2928 4238 2928 
Q 3984 2928 3721 2775 
Q 3459 2622 3314 2373 
Q 3169 2125 3059 1609 
L 2722 0 
L 2156 0 
L 2625 2241 
Q 2675 2469 2675 2566 
Q 2675 2728 2573 2828 
Q 2472 2928 2309 2928 
Q 2069 2928 1805 2775 
Q 1541 2622 1375 2348 
Q 1209 2075 1103 1569 
L 775 0 
L 209 0 
z
" transform="scale(0.015625)"/>
      <path id="Arial-ItalicMT-7a" d="M 125 0 
L 216 438 
L 2000 2447 
Q 2191 2659 2425 2888 
Q 2022 2847 1847 2847 
L 613 2847 
L 713 3319 
L 3278 3319 
L 3203 2963 
L 1403 941 
Q 1250 769 947 469 
Q 1419 497 1594 497 
L 2900 497 
L 2797 0 
L 125 0 
z
" transform="scale(0.015625)"/>
      <path id="Arial-ItalicMT-64" d="M 2450 481 
Q 1966 -75 1438 -75 
Q 966 -75 652 273 
Q 338 622 338 1284 
Q 338 1891 586 2392 
Q 834 2894 1207 3144 
Q 1581 3394 1956 3394 
Q 2575 3394 2891 2797 
L 3266 4581 
L 3828 4581 
L 2872 0 
L 2350 0 
L 2450 481 
z
M 900 1391 
Q 900 1044 969 844 
Q 1038 644 1203 511 
Q 1369 378 1600 378 
Q 1984 378 2297 778 
Q 2716 1309 2716 2091 
Q 2716 2484 2509 2706 
Q 2303 2928 1991 2928 
Q 1788 2928 1620 2837 
Q 1453 2747 1289 2530 
Q 1125 2313 1012 1978 
Q 900 1644 900 1391 
z
" transform="scale(0.015625)"/>
     </defs>
     <use xlink:href="#Arial-ItalicMT-4f"/>
     <use xlink:href="#Arial-ItalicMT-70" transform="translate(77.783203 0)"/>
     <use xlink:href="#Arial-ItalicMT-74" transform="translate(133.398438 0)"/>
     <use xlink:href="#Arial-ItalicMT-69" transform="translate(161.181641 0)"/>
     <use xlink:href="#Arial-ItalicMT-6d" transform="translate(183.398438 0)"/>
     <use xlink:href="#Arial-ItalicMT-69" transform="translate(266.699219 0)"/>
     <use xlink:href="#Arial-ItalicMT-7a" transform="translate(288.916016 0)"/>
     <use xlink:href="#Arial-ItalicMT-65" transform="translate(338.916016 0)"/>
     <use xlink:href="#Arial-ItalicMT-64" transform="translate(394.53125 0)"/>
    </g>
   </g>
   <g id="text_8">
    <!-- TOON Integration: Just-In-Time Conversion Pattern -->
    <g style="fill: #262626" transform="translate(329.921562 17.391562) scale(0.14 -0.14)">
     <defs>
      <path id="Arial-BoldMT-67" d="M 378 -219 
L 1381 -341 
Q 1406 -516 1497 -581 
Q 1622 -675 1891 -675 
Q 2234 -675 2406 -572 
Q 2522 -503 2581 -350 
Q 2622 -241 2622 53 
L 2622 538 
Q 2228 0 1628 0 
Q 959 0 569 566 
Q 263 1013 263 1678 
Q 263 2513 664 2953 
Q 1066 3394 1663 3394 
Q 2278 3394 2678 2853 
L 2678 3319 
L 3500 3319 
L 3500 341 
Q 3500 -247 3403 -537 
Q 3306 -828 3131 -993 
Q 2956 -1159 2664 -1253 
Q 2372 -1347 1925 -1347 
Q 1081 -1347 728 -1058 
Q 375 -769 375 -325 
Q 375 -281 378 -219 
z
M 1163 1728 
Q 1163 1200 1367 954 
Q 1572 709 1872 709 
Q 2194 709 2416 961 
Q 2638 1213 2638 1706 
Q 2638 2222 2425 2472 
Q 2213 2722 1888 2722 
Q 1572 2722 1367 2476 
Q 1163 2231 1163 1728 
z
" transform="scale(0.015625)"/>
      <path id="Arial-BoldMT-69" d="M 459 3769 
L 459 4581 
L 1338 4581 
L 1338 3769 
L 459 3769 
z
M 459 0 
L 459 3319 
L 1338 3319 
L 1338 0 
L 459 0 
z
" transform="scale(0.015625)"/>
      <path id="Arial-BoldMT-3a" d="M 628 2441 
L 628 3319 
L 1506 3319 
L 1506 2441 
L 628 2441 
z
M 628 0 
L 628 878 
L 1506 878 
L 1506 0 
L 628 0 
z
" transform="scale(0.015625)"/>
      <path id="Arial-BoldMT-75" d="M 2644 0 
L 2644 497 
Q 2463 231 2167 78 
Q 1872 -75 1544 -75 
Q 1209 -75 943 72 
Q 678 219 559 484 
Q 441 750 441 1219 
L 441 3319 
L 1319 3319 
L 1319 1794 
Q 1319 1094 1367 936 
Q 1416 778 1544 686 
Q 1672 594 1869 594 
Q 2094 594 2272 717 
Q 2450 841 2515 1023 
Q 2581 1206 2581 1919 
L 2581 3319 
L 3459 3319 
L 3459 0 
L 2644 0 
z
" transform="scale(0.015625)"/>
      <path id="Arial-BoldMT-2d" d="M 359 1222 
L 359 2100 
L 2084 2100 
L 2084 1222 
L 359 1222 
z
" transform="scale(0.015625)"/>
     </defs>
     <use xlink:href="#Arial-BoldMT-54"/>
     <use xlink:href="#Arial-BoldMT-4f" transform="translate(59.333984 0)"/>
     <use xlink:href="#Arial-BoldMT-4f" transform="translate(137.117188 0)"/>
     <use xlink:href="#Arial-BoldMT-4e" transform="translate(214.900391 0)"/>
     <use xlink:href="#Arial-BoldMT-20" transform="translate(287.117188 0)"/>
     <use xlink:href="#Arial-BoldMT-49" transform="translate(314.900391 0)"/>
     <use xlink:href="#Arial-BoldMT-6e" transform="translate(342.683594 0)"/>
     <use xlink:href="#Arial-BoldMT-74" transform="translate(403.767578 0)"/>
     <use xlink:href="#Arial-BoldMT-65" transform="translate(437.068359 0)"/>
     <use xlink:href="#Arial-BoldMT-67" transform="translate(492.683594 0)"/>
     <use xlink:href="#Arial-BoldMT-72" transform="translate(553.767578 0)"/>
     <use xlink:href="#Arial-BoldMT-61" transform="translate(592.683594 0)"/>
     <use xlink:href="#Arial-BoldMT-74" transform="translate(648.298828 0)"/>
     <use xlink:href="#Arial-BoldMT-69" transform="translate(681.599609 0)"/>
     <use xlink:href="#Arial-BoldMT-6f" transform="translate(709.382812 0)"/>
     <use xlink:href="#Arial-BoldMT-6e" transform="translate(770.466797 0)"/>
     <use xlink:href="#Arial-BoldMT-3a" transform="translate(831.550781 0)"/>
     <use xlink:href="#Arial-BoldMT-20" transform="translate(864.851562 0)"/>
     <use xlink:href="#Arial-BoldMT-4a" transform="translate(892.634766 0)"/>
     <use xlink:href="#Arial-BoldMT-75" transform="translate(948.25 0)"/>
     <use xlink:href="#Arial-BoldMT-73" transform="translate(1009.333984 0)"/>
     <use xlink:href="#Arial-BoldMT-74" transform="translate(1064.949219 0)"/>
     <use xlink:href="#Arial-BoldMT-2d" transform="translate(1098.25 0)"/>
     <use xlink:href="#Arial-BoldMT-49" transform="translate(1131.550781 0)"/>
     <use xlink:href="#Arial-BoldMT-6e" transform="translate(1159.333984 0)"/>
     <use xlink:href="#Arial-BoldMT-2d" transform="translate(1220.417969 0)"/>
     <use xlink:href="#Arial-BoldMT-54" transform="translate(1253.71875 0)"/>
     <use xlink:href="#Arial-BoldMT-69" transform="translate(1313.052734 0)"/>
     <use xlink:href="#Arial-BoldMT-6d" transform="translate(1340.835938 0)"/>
     <use xlink:href="#Arial-BoldMT-65" transform="translate(1429.751953 0)"/>
     <use xlink:href="#Arial-BoldMT-20" transform="translate(1485.367188 0)"/>
     <use xlink:href="#Arial-BoldMT-43" transform="translate(1513.150391 0)"/>
     <use xlink:href="#Arial-BoldMT-6f" transform="translate(1585.367188 0)"/>
     <use xlink:href="#Arial-BoldMT-6e" transform="translate(1646.451172 0)"/>
     <use xlink:href="#Arial-BoldMT-76" transform="translate(1707.535156 0)"/>
     <use xlink:href="#Arial-BoldMT-65" transform="translate(1763.150391 0)"/>
     <use xlink:href="#Arial-BoldMT-72" transform="translate(1818.765625 0)"/>
     <use xlink:href="#Arial-BoldMT-73" transform="translate(1857.681641 0)"/>
     <use xlink:href="#Arial-BoldMT-69" transform="translate(1913.296875 0)"/>
     <use xlink:href="#Arial-BoldMT-6f" transform="translate(1941.080078 0)"/>
     <use xlink:href="#Arial-BoldMT-6e" transform="translate(2002.164062 0)"/>
     <use xlink:href="#Arial-BoldMT-20" transform="translate(2063.248047 0)"/>
     <use xlink:href="#Arial-BoldMT-50" transform="translate(2091.03125 0)"/>
     <use xlink:href="#Arial-BoldMT-61" transform="translate(2157.730469 0)"/>
     <use xlink:href="#Arial-BoldMT-74" transform="translate(2213.345703 0)"/>
     <use xlink:href="#Arial-BoldMT-74" transform="translate(2246.646484 0)"/>
     <use xlink:href="#Arial-BoldMT-65" transform="translate(2279.947266 0)"/>
     <use xlink:href="#Arial-BoldMT-72" transform="translate(2335.5625 0)"/>
     <use xlink:href="#Arial-BoldMT-6e" transform="translate(2374.478516 0)"/>
    </g>
   </g>
  </g>
 </g>
 <defs>
  <clipPath id="p1ef85a4b99">
   <rect x="7.2" y="35.348662" width="986.4" height="239.142"/>
  </clipPath>
 </defs>
</svg>
