<?xml version="1.0" encoding="utf-8" standalone="no"?>
<!DOCTYPE svg PUBLIC "-//W3C//DTD SVG 1.1//EN"
  "http://www.w3.org/Graphics/SVG/1.1/DTD/svg11.dtd">
<svg xmlns:xlink="http://www.w3.org/1999/xlink" width="1434.4pt" height="714.4pt" viewBox="0 0 1434.4 714.4" xmlns="http://www.w3.org/2000/svg" version="1.1">
 <metadata>
  <rdf:RDF xmlns:dc="http://purl.org/dc/elements/1.1/" xmlns:cc="http://creativecommons.org/ns#" xmlns:rdf="http://www.w3.org/1999/02/22-rdf-syntax-ns#">
   <cc:Work>
    <dc:type rdf:resource="http://purl.org/dc/dcmitype/StillImage"/>
    <dc:date>2025-12-26T02:34:20.628233</dc:date>
    <dc:format>image/svg+xml</dc:format>
    <dc:creator>
     <cc:Agent>
      <dc:title>Matplotlib v3.10.5, https://matplotlib.org/</dc:title>
     </cc:Agent>
    </dc:creator>
   </cc:Work>
  </rdf:RDF>
 </metadata>
 <defs>
  <style type="text/css">*{stroke-linejoin: round; stroke-linecap: butt}</style>
 </defs>
 <g id="figure_1">
  <g id="patch_1">
   <path d="M 0 714.4 
L 1434.4 714.4 
L 1434.4 0 
L 0 0 
z
" style="fill: #ffffff"/>
  </g>
  <g id="axes_1">
   <g id="patch_2">
    <path d="M 40.57 408.3 
L 257.83 408.3 
Q 272.03 408.3 272.03 394.3 
L 272.03 320.1 
Q 272.03 306.1 257.83 306.1 
L 40.57 306.1 
Q 26.37 306.1 26.37 320.1 
L 26.37 394.3 
Q 26.37 408.3 40.57 408.3 
z
" clip-path="url(#p9690116eeb)" style="fill: #2c3e50; stroke: #2c3e50; stroke-width: 3; stroke-linejoin: miter"/>
   </g>
   <g id="patch_3">
    <path d="M 305.4 357.2 
L 433.2 252.2 
L 561 357.2 
L 433.2 462.2 
z
" clip-path="url(#p9690116eeb)" style="fill: #bdc3c7; opacity: 0.9; stroke: #7f8c8d; stroke-width: 2.5; stroke-linejoin: miter"/>
   </g>
   <g id="patch_4">
    <path d="M 352.97 173.8 
L 513.43 173.8 
Q 527.63 173.8 527.63 159.8 
L 527.63 106.6 
Q 527.63 92.6 513.43 92.6 
L 352.97 92.6 
Q 338.77 92.6 338.77 106.6 
L 338.77 159.8 
Q 338.77 173.8 352.97 173.8 
z
" clip-path="url(#p9690116eeb)" style="fill: #3498db; stroke: #000000; stroke-width: 3; stroke-linejoin: miter"/>
   </g>
   <g id="patch_5">
    <path d="M 660.4 357.2 
L 788.2 252.2 
L 916 357.2 
L 788.2 462.2 
z
" clip-path="url(#p9690116eeb)" style="fill: #bdc3c7; opacity: 0.9; stroke: #7f8c8d; stroke-width: 2.5; stroke-linejoin: miter"/>
   </g>
   <g id="patch_6">
    <path d="M 707.97 642.8 
L 868.43 642.8 
Q 882.63 642.8 882.63 628.8 
L 882.63 575.6 
Q 882.63 561.6 868.43 561.6 
L 707.97 561.6 
Q 693.77 561.6 693.77 575.6 
L 693.77 628.8 
Q 693.77 642.8 707.97 642.8 
z
" clip-path="url(#p9690116eeb)" style="fill: #f39c12; stroke: #000000; stroke-width: 3; stroke-linejoin: miter"/>
   </g>
   <g id="patch_7">
    <path d="M 1015.4 357.2 
L 1143.2 252.2 
L 1271 357.2 
L 1143.2 462.2 
z
" clip-path="url(#p9690116eeb)" style="fill: #bdc3c7; opacity: 0.9; stroke: #7f8c8d; stroke-width: 2.5; stroke-linejoin: miter"/>
   </g>
   <g id="patch_8">
    <path d="M 1062.97 173.8 
L 1223.43 173.8 
Q 1237.63 173.8 1237.63 159.8 
L 1237.63 106.6 
Q 1237.63 92.6 1223.43 92.6 
L 1062.97 92.6 
Q 1048.77 92.6 1048.77 106.6 
L 1048.77 159.8 
Q 1048.77 173.8 1062.97 173.8 
z
" clip-path="url(#p9690116eeb)" style="fill: #f39c12; stroke: #000000; stroke-width: 3; stroke-linejoin: miter"/>
   </g>
   <g id="patch_9">
    <path d="M 1275.97 397.8 
L 1436.43 397.8 
Q 1450.63 397.8 1450.63 383.8 
L 1450.63 330.6 
Q 1450.63 316.6 1436.43 316.6 
L 1275.97 316.6 
Q 1261.77 316.6 1261.77 330.6 
L 1261.77 383.8 
Q 1261.77 397.8 1275.97 397.8 
z
" clip-path="url(#p9690116eeb)" style="fill: #2ecc71; stroke: #27ae60; stroke-width: 3; stroke-linejoin: miter"/>
   </g>
   <g id="text_1">
    <!-- Format Selection Decision Tree -->
    <g style="fill: #262626" transform="translate(508.700625 56.2) scale(0.28 -0.28)">
     <defs>
      <path id="Arial-BoldMT-46" d="M 472 0 
L 472 4581 
L 3613 4581 
L 3613 3806 
L 1397 3806 
L 1397 2722 
L 3309 2722 
L 3309 1947 
L 1397 1947 
L 1397 0 
L 472 0 
z
" transform="scale(0.015625)"/>
      <path id="Arial-BoldMT-6f" d="M 256 1706 
Q 256 2144 472 2553 
Q 688 2963 1083 3178 
Q 1478 3394 1966 3394 
Q 2719 3394 3200 2905 
Q 3681 2416 3681 1669 
Q 3681 916 3195 420 
Q 2709 -75 1972 -75 
Q 1516 -75 1102 131 
Q 688 338 472 736 
Q 256 1134 256 1706 
z
M 1156 1659 
Q 1156 1166 1390 903 
Q 1625 641 1969 641 
Q 2313 641 2545 903 
Q 2778 1166 2778 1666 
Q 2778 2153 2545 2415 
Q 2313 2678 1969 2678 
Q 1625 2678 1390 2415 
Q 1156 2153 1156 1659 
z
" transform="scale(0.015625)"/>
      <path id="Arial-BoldMT-72" d="M 1300 0 
L 422 0 
L 422 3319 
L 1238 3319 
L 1238 2847 
Q 1447 3181 1614 3287 
Q 1781 3394 1994 3394 
Q 2294 3394 2572 3228 
L 2300 2463 
Q 2078 2606 1888 2606 
Q 1703 2606 1575 2504 
Q 1447 2403 1373 2137 
Q 1300 1872 1300 1025 
L 1300 0 
z
" transform="scale(0.015625)"/>
      <path id="Arial-BoldMT-6d" d="M 394 3319 
L 1203 3319 
L 1203 2866 
Q 1638 3394 2238 3394 
Q 2556 3394 2790 3262 
Q 3025 3131 3175 2866 
Q 3394 3131 3647 3262 
Q 3900 3394 4188 3394 
Q 4553 3394 4806 3245 
Q 5059 3097 5184 2809 
Q 5275 2597 5275 2122 
L 5275 0 
L 4397 0 
L 4397 1897 
Q 4397 2391 4306 2534 
Q 4184 2722 3931 2722 
Q 3747 2722 3584 2609 
Q 3422 2497 3350 2280 
Q 3278 2063 3278 1594 
L 3278 0 
L 2400 0 
L 2400 1819 
Q 2400 2303 2353 2443 
Q 2306 2584 2207 2653 
Q 2109 2722 1941 2722 
Q 1738 2722 1575 2612 
Q 1413 2503 1342 2297 
Q 1272 2091 1272 1613 
L 1272 0 
L 394 0 
L 394 3319 
z
" transform="scale(0.015625)"/>
      <path id="Arial-BoldMT-61" d="M 1116 2306 
L 319 2450 
Q 453 2931 781 3162 
Q 1109 3394 1756 3394 
Q 2344 3394 2631 3255 
Q 2919 3116 3036 2902 
Q 3153 2688 3153 2116 
L 3144 1091 
Q 3144 653 3186 445 
Q 3228 238 3344 0 
L 2475 0 
Q 2441 88 2391 259 
Q 2369 338 2359 363 
Q 2134 144 1878 34 
Q 1622 -75 1331 -75 
Q 819 -75 523 203 
Q 228 481 228 906 
Q 228 1188 362 1408 
Q 497 1628 739 1745 
Q 981 1863 1438 1950 
Q 2053 2066 2291 2166 
L 2291 2253 
Q 2291 2506 2166 2614 
Q 2041 2722 1694 2722 
Q 1459 2722 1328 2630 
Q 1197 2538 1116 2306 
z
M 2291 1594 
Q 2122 1538 1756 1459 
Q 1391 1381 1278 1306 
Q 1106 1184 1106 997 
Q 1106 813 1243 678 
Q 1381 544 1594 544 
Q 1831 544 2047 700 
Q 2206 819 2256 991 
Q 2291 1103 2291 1419 
L 2291 1594 
z
" transform="scale(0.015625)"/>
      <path id="Arial-BoldMT-74" d="M 1981 3319 
L 1981 2619 
L 1381 2619 
L 1381 1281 
Q 1381 875 1398 808 
Q 1416 741 1477 697 
Q 1538 653 1625 653 
Q 1747 653 1978 738 
L 2053 56 
Q 1747 -75 1359 -75 
Q 1122 -75 931 4 
Q 741 84 652 211 
Q 563 338 528 553 
Q 500 706 500 1172 
L 500 2619 
L 97 2619 
L 97 3319 
L 500 3319 
L 500 3978 
L 1381 4491 
L 1381 3319 
L 1981 3319 
z
" transform="scale(0.015625)"/>
      <path id="Arial-BoldMT-20" transform="scale(0.015625)"/>
      <path id="Arial-BoldMT-53" d="M 231 1491 
L 1131 1578 
Q 1213 1125 1461 912 
Q 1709 700 2131 700 
Q 2578 700 2804 889 
Q 3031 1078 3031 1331 
Q 3031 1494 2936 1608 
Q 2841 1722 2603 1806 
Q 2441 1863 1863 2006 
Q 1119 2191 819 2459 
Q 397 2838 397 3381 
Q 397 3731 595 4036 
Q 794 4341 1167 4500 
Q 1541 4659 2069 4659 
Q 2931 4659 3367 4281 
Q 3803 3903 3825 3272 
L 2900 3231 
Q 2841 3584 2645 3739 
Q 2450 3894 2059 3894 
Q 1656 3894 1428 3728 
Q 1281 3622 1281 3444 
Q 1281 3281 1419 3166 
Q 1594 3019 2269 2859 
Q 2944 2700 3267 2529 
Q 3591 2359 3773 2064 
Q 3956 1769 3956 1334 
Q 3956 941 3737 597 
Q 3519 253 3119 86 
Q 2719 -81 2122 -81 
Q 1253 -81 787 320 
Q 322 722 231 1491 
z
" transform="scale(0.015625)"/>
      <path id="Arial-BoldMT-65" d="M 2381 1056 
L 3256 909 
Q 3088 428 2723 176 
Q 2359 -75 1813 -75 
Q 947 -75 531 491 
Q 203 944 203 1634 
Q 203 2459 634 2926 
Q 1066 3394 1725 3394 
Q 2466 3394 2894 2905 
Q 3322 2416 3303 1406 
L 1103 1406 
Q 1113 1016 1316 798 
Q 1519 581 1822 581 
Q 2028 581 2168 693 
Q 2309 806 2381 1056 
z
M 2431 1944 
Q 2422 2325 2234 2523 
Q 2047 2722 1778 2722 
Q 1491 2722 1303 2513 
Q 1116 2303 1119 1944 
L 2431 1944 
z
" transform="scale(0.015625)"/>
      <path id="Arial-BoldMT-6c" d="M 459 0 
L 459 4581 
L 1338 4581 
L 1338 0 
L 459 0 
z
" transform="scale(0.015625)"/>
      <path id="Arial-BoldMT-63" d="M 3353 2338 
L 2488 2181 
Q 2444 2441 2289 2572 
Q 2134 2703 1888 2703 
Q 1559 2703 1364 2476 
Q 1169 2250 1169 1719 
Q 1169 1128 1367 884 
Q 1566 641 1900 641 
Q 2150 641 2309 783 
Q 2469 925 2534 1272 
L 3397 1125 
Q 3263 531 2881 228 
Q 2500 -75 1859 -75 
Q 1131 -75 698 384 
Q 266 844 266 1656 
Q 266 2478 700 2936 
Q 1134 3394 1875 3394 
Q 2481 3394 2839 3133 
Q 3197 2872 3353 2338 
z
" transform="scale(0.015625)"/>
      <path id="Arial-BoldMT-69" d="M 459 3769 
L 459 4581 
L 1338 4581 
L 1338 3769 
L 459 3769 
z
M 459 0 
L 459 3319 
L 1338 3319 
L 1338 0 
L 459 0 
z
" transform="scale(0.015625)"/>
      <path id="Arial-BoldMT-6e" d="M 3478 0 
L 2600 0 
L 2600 1694 
Q 2600 2231 2544 2389 
Q 2488 2547 2361 2634 
Q 2234 2722 2056 2722 
Q 1828 2722 1647 2597 
Q 1466 2472 1398 2265 
Q 1331 2059 1331 1503 
L 1331 0 
L 453 0 
L 453 3319 
L 1269 3319 
L 1269 2831 
Q 1703 3394 2363 3394 
Q 2653 3394 2893 3289 
Q 3134 3184 3257 3021 
Q 3381 2859 3429 2653 
Q 3478 2447 3478 2063 
L 3478 0 
z
" transform="scale(0.015625)"/>
      <path id="Arial-BoldMT-44" d="M 463 4581 
L 2153 4581 
Q 2725 4581 3025 4494 
Q 3428 4375 3715 4072 
Q 4003 3769 4153 3330 
Q 4303 2891 4303 2247 
Q 4303 1681 4163 1272 
Q 3991 772 3672 463 
Q 3431 228 3022 97 
Q 2716 0 2203 0 
L 463 0 
L 463 4581 
z
M 1388 3806 
L 1388 772 
L 2078 772 
Q 2466 772 2638 816 
Q 2863 872 3011 1006 
Q 3159 1141 3253 1448 
Q 3347 1756 3347 2288 
Q 3347 2819 3253 3103 
Q 3159 3388 2990 3547 
Q 2822 3706 2563 3763 
Q 2369 3806 1803 3806 
L 1388 3806 
z
" transform="scale(0.015625)"/>
      <path id="Arial-BoldMT-73" d="M 150 947 
L 1031 1081 
Q 1088 825 1259 692 
Q 1431 559 1741 559 
Q 2081 559 2253 684 
Q 2369 772 2369 919 
Q 2369 1019 2306 1084 
Q 2241 1147 2013 1200 
Q 950 1434 666 1628 
Q 272 1897 272 2375 
Q 272 2806 612 3100 
Q 953 3394 1669 3394 
Q 2350 3394 2681 3172 
Q 3013 2950 3138 2516 
L 2309 2363 
Q 2256 2556 2107 2659 
Q 1959 2763 1684 2763 
Q 1338 2763 1188 2666 
Q 1088 2597 1088 2488 
Q 1088 2394 1175 2328 
Q 1294 2241 1995 2081 
Q 2697 1922 2975 1691 
Q 3250 1456 3250 1038 
Q 3250 581 2869 253 
Q 2488 -75 1741 -75 
Q 1063 -75 667 200 
Q 272 475 150 947 
z
" transform="scale(0.015625)"/>
      <path id="Arial-BoldMT-54" d="M 1497 0 
L 1497 3806 
L 138 3806 
L 138 4581 
L 3778 4581 
L 3778 3806 
L 2422 3806 
L 2422 0 
L 1497 0 
z
" transform="scale(0.015625)"/>
     </defs>
     <use xlink:href="#Arial-BoldMT-46"/>
     <use xlink:href="#Arial-BoldMT-6f" transform="translate(61.083984 0)"/>
     <use xlink:href="#Arial-BoldMT-72" transform="translate(122.167969 0)"/>
     <use xlink:href="#Arial-BoldMT-6d" transform="translate(161.083984 0)"/>
     <use xlink:href="#Arial-BoldMT-61" transform="translate(250 0)"/>
     <use xlink:href="#Arial-BoldMT-74" transform="translate(305.615234 0)"/>
     <use xlink:href="#Arial-BoldMT-20" transform="translate(338.916016 0)"/>
     <use xlink:href="#Arial-BoldMT-53" transform="translate(366.699219 0)"/>
     <use xlink:href="#Arial-BoldMT-65" transform="translate(433.398438 0)"/>
     <use xlink:href="#Arial-BoldMT-6c" transform="translate(489.013672 0)"/>
     <use xlink:href="#Arial-BoldMT-65" transform="translate(516.796875 0)"/>
     <use xlink:href="#Arial-BoldMT-63" transform="translate(572.412109 0)"/>
     <use xlink:href="#Arial-BoldMT-74" transform="translate(628.027344 0)"/>
     <use xlink:href="#Arial-BoldMT-69" transform="translate(661.328125 0)"/>
     <use xlink:href="#Arial-BoldMT-6f" transform="translate(689.111328 0)"/>
     <use xlink:href="#Arial-BoldMT-6e" transform="translate(750.195312 0)"/>
     <use xlink:href="#Arial-BoldMT-20" transform="translate(811.279297 0)"/>
     <use xlink:href="#Arial-BoldMT-44" transform="translate(839.0625 0)"/>
     <use xlink:href="#Arial-BoldMT-65" transform="translate(911.279297 0)"/>
     <use xlink:href="#Arial-BoldMT-63" transform="translate(966.894531 0)"/>
     <use xlink:href="#Arial-BoldMT-69" transform="translate(1022.509766 0)"/>
     <use xlink:href="#Arial-BoldMT-73" transform="translate(1050.292969 0)"/>
     <use xlink:href="#Arial-BoldMT-69" transform="translate(1105.908203 0)"/>
     <use xlink:href="#Arial-BoldMT-6f" transform="translate(1133.691406 0)"/>
     <use xlink:href="#Arial-BoldMT-6e" transform="translate(1194.775391 0)"/>
     <use xlink:href="#Arial-BoldMT-20" transform="translate(1255.859375 0)"/>
     <use xlink:href="#Arial-BoldMT-54" transform="translate(1283.642578 0)"/>
     <use xlink:href="#Arial-BoldMT-72" transform="translate(1339.226562 0)"/>
     <use xlink:href="#Arial-BoldMT-65" transform="translate(1378.142578 0)"/>
     <use xlink:href="#Arial-BoldMT-65" transform="translate(1433.757812 0)"/>
    </g>
   </g>
   <g id="text_2">
    <!-- Start: -->
    <g style="fill: #ffffff" transform="translate(128.31 352.89725) scale(0.16 -0.16)">
     <defs>
      <path id="Arial-BoldMT-3a" d="M 628 2441 
L 628 3319 
L 1506 3319 
L 1506 2441 
L 628 2441 
z
M 628 0 
L 628 878 
L 1506 878 
L 1506 0 
L 628 0 
z
" transform="scale(0.015625)"/>
     </defs>
     <use xlink:href="#Arial-BoldMT-53"/>
     <use xlink:href="#Arial-BoldMT-74" transform="translate(66.699219 0)"/>
     <use xlink:href="#Arial-BoldMT-61" transform="translate(100 0)"/>
     <use xlink:href="#Arial-BoldMT-72" transform="translate(155.615234 0)"/>
     <use xlink:href="#Arial-BoldMT-74" transform="translate(194.53125 0)"/>
     <use xlink:href="#Arial-BoldMT-3a" transform="translate(227.832031 0)"/>
    </g>
    <!-- Data to serialize -->
    <g style="fill: #ffffff" transform="translate(88.29 369.79775) scale(0.16 -0.16)">
     <defs>
      <path id="Arial-BoldMT-7a" d="M 106 0 
L 106 684 
L 1350 2113 
Q 1656 2463 1803 2609 
Q 1650 2600 1400 2597 
L 228 2591 
L 228 3319 
L 2972 3319 
L 2972 2697 
L 1703 1234 
L 1256 750 
Q 1622 772 1709 772 
L 3069 772 
L 3069 0 
L 106 0 
z
" transform="scale(0.015625)"/>
     </defs>
     <use xlink:href="#Arial-BoldMT-44"/>
     <use xlink:href="#Arial-BoldMT-61" transform="translate(72.216797 0)"/>
     <use xlink:href="#Arial-BoldMT-74" transform="translate(127.832031 0)"/>
     <use xlink:href="#Arial-BoldMT-61" transform="translate(161.132812 0)"/>
     <use xlink:href="#Arial-BoldMT-20" transform="translate(216.748047 0)"/>
     <use xlink:href="#Arial-BoldMT-74" transform="translate(244.53125 0)"/>
     <use xlink:href="#Arial-BoldMT-6f" transform="translate(277.832031 0)"/>
     <use xlink:href="#Arial-BoldMT-20" transform="translate(338.916016 0)"/>
     <use xlink:href="#Arial-BoldMT-73" transform="translate(366.699219 0)"/>
     <use xlink:href="#Arial-BoldMT-65" transform="translate(422.314453 0)"/>
     <use xlink:href="#Arial-BoldMT-72" transform="translate(477.929688 0)"/>
     <use xlink:href="#Arial-BoldMT-69" transform="translate(516.845703 0)"/>
     <use xlink:href="#Arial-BoldMT-61" transform="translate(544.628906 0)"/>
     <use xlink:href="#Arial-BoldMT-6c" transform="translate(600.244141 0)"/>
     <use xlink:href="#Arial-BoldMT-69" transform="translate(628.027344 0)"/>
     <use xlink:href="#Arial-BoldMT-7a" transform="translate(655.810547 0)"/>
     <use xlink:href="#Arial-BoldMT-65" transform="translate(705.810547 0)"/>
    </g>
   </g>
   <g id="text_3">
    <!-- LLM input -->
    <g style="fill: #262626" transform="translate(397.383984 353.100078) scale(0.15 -0.15)">
     <defs>
      <path id="Arial-BoldMT-4c" d="M 491 0 
L 491 4544 
L 1416 4544 
L 1416 772 
L 3716 772 
L 3716 0 
L 491 0 
z
" transform="scale(0.015625)"/>
      <path id="Arial-BoldMT-4d" d="M 453 0 
L 453 4581 
L 1838 4581 
L 2669 1456 
L 3491 4581 
L 4878 4581 
L 4878 0 
L 4019 0 
L 4019 3606 
L 3109 0 
L 2219 0 
L 1313 3606 
L 1313 0 
L 453 0 
z
" transform="scale(0.015625)"/>
      <path id="Arial-BoldMT-70" d="M 434 3319 
L 1253 3319 
L 1253 2831 
Q 1413 3081 1684 3237 
Q 1956 3394 2288 3394 
Q 2866 3394 3269 2941 
Q 3672 2488 3672 1678 
Q 3672 847 3265 386 
Q 2859 -75 2281 -75 
Q 2006 -75 1782 34 
Q 1559 144 1313 409 
L 1313 -1263 
L 434 -1263 
L 434 3319 
z
M 1303 1716 
Q 1303 1156 1525 889 
Q 1747 622 2066 622 
Q 2372 622 2575 867 
Q 2778 1113 2778 1672 
Q 2778 2194 2568 2447 
Q 2359 2700 2050 2700 
Q 1728 2700 1515 2451 
Q 1303 2203 1303 1716 
z
" transform="scale(0.015625)"/>
      <path id="Arial-BoldMT-75" d="M 2644 0 
L 2644 497 
Q 2463 231 2167 78 
Q 1872 -75 1544 -75 
Q 1209 -75 943 72 
Q 678 219 559 484 
Q 441 750 441 1219 
L 441 3319 
L 1319 3319 
L 1319 1794 
Q 1319 1094 1367 936 
Q 1416 778 1544 686 
Q 1672 594 1869 594 
Q 2094 594 2272 717 
Q 2450 841 2515 1023 
Q 2581 1206 2581 1919 
L 2581 3319 
L 3459 3319 
L 3459 0 
L 2644 0 
z
" transform="scale(0.015625)"/>
     </defs>
     <use xlink:href="#Arial-BoldMT-4c"/>
     <use xlink:href="#Arial-BoldMT-4c" transform="translate(61.083984 0)"/>
     <use xlink:href="#Arial-BoldMT-4d" transform="translate(122.167969 0)"/>
     <use xlink:href="#Arial-BoldMT-20" transform="translate(205.46875 0)"/>
     <use xlink:href="#Arial-BoldMT-69" transform="translate(233.251953 0)"/>
     <use xlink:href="#Arial-BoldMT-6e" transform="translate(261.035156 0)"/>
     <use xlink:href="#Arial-BoldMT-70" transform="translate(322.119141 0)"/>
     <use xlink:href="#Arial-BoldMT-75" transform="translate(383.203125 0)"/>
     <use xlink:href="#Arial-BoldMT-74" transform="translate(444.287109 0)"/>
    </g>
    <!-- or output? -->
    <g style="fill: #262626" transform="translate(395.717578 369.076484) scale(0.15 -0.15)">
     <defs>
      <path id="Arial-BoldMT-3f" d="M 2347 1181 
L 1550 1181 
Q 1547 1353 1547 1391 
Q 1547 1778 1675 2028 
Q 1803 2278 2187 2590 
Q 2572 2903 2647 3000 
Q 2763 3153 2763 3338 
Q 2763 3594 2558 3776 
Q 2353 3959 2006 3959 
Q 1672 3959 1447 3768 
Q 1222 3578 1138 3188 
L 331 3288 
Q 366 3847 808 4237 
Q 1250 4628 1969 4628 
Q 2725 4628 3172 4233 
Q 3619 3838 3619 3313 
Q 3619 3022 3455 2762 
Q 3291 2503 2753 2056 
Q 2475 1825 2408 1684 
Q 2341 1544 2347 1181 
z
M 1550 0 
L 1550 878 
L 2428 878 
L 2428 0 
L 1550 0 
z
" transform="scale(0.015625)"/>
     </defs>
     <use xlink:href="#Arial-BoldMT-6f"/>
     <use xlink:href="#Arial-BoldMT-72" transform="translate(61.083984 0)"/>
     <use xlink:href="#Arial-BoldMT-20" transform="translate(100 0)"/>
     <use xlink:href="#Arial-BoldMT-6f" transform="translate(127.783203 0)"/>
     <use xlink:href="#Arial-BoldMT-75" transform="translate(188.867188 0)"/>
     <use xlink:href="#Arial-BoldMT-74" transform="translate(249.951172 0)"/>
     <use xlink:href="#Arial-BoldMT-70" transform="translate(283.251953 0)"/>
     <use xlink:href="#Arial-BoldMT-75" transform="translate(344.335938 0)"/>
     <use xlink:href="#Arial-BoldMT-74" transform="translate(405.419922 0)"/>
     <use xlink:href="#Arial-BoldMT-3f" transform="translate(438.720703 0)"/>
    </g>
   </g>
   <g id="text_4">
    <!-- Use JSON -->
    <g transform="translate(389.682187 137.865937) scale(0.18 -0.18)">
     <defs>
      <path id="Arial-BoldMT-55" d="M 459 4581 
L 1384 4581 
L 1384 2100 
Q 1384 1509 1419 1334 
Q 1478 1053 1701 883 
Q 1925 713 2313 713 
Q 2706 713 2906 873 
Q 3106 1034 3147 1268 
Q 3188 1503 3188 2047 
L 3188 4581 
L 4113 4581 
L 4113 2175 
Q 4113 1350 4038 1009 
Q 3963 669 3761 434 
Q 3559 200 3221 61 
Q 2884 -78 2341 -78 
Q 1684 -78 1345 73 
Q 1006 225 809 467 
Q 613 709 550 975 
Q 459 1369 459 2138 
L 459 4581 
z
" transform="scale(0.015625)"/>
      <path id="Arial-BoldMT-4a" d="M 2119 4581 
L 3041 4581 
L 3041 1681 
Q 3041 1113 2941 806 
Q 2806 406 2453 164 
Q 2100 -78 1522 -78 
Q 844 -78 478 301 
Q 113 681 109 1416 
L 981 1516 
Q 997 1122 1097 959 
Q 1247 713 1553 713 
Q 1863 713 1991 889 
Q 2119 1066 2119 1622 
L 2119 4581 
z
" transform="scale(0.015625)"/>
      <path id="Arial-BoldMT-4f" d="M 278 2263 
Q 278 2963 488 3438 
Q 644 3788 914 4066 
Q 1184 4344 1506 4478 
Q 1934 4659 2494 4659 
Q 3506 4659 4114 4031 
Q 4722 3403 4722 2284 
Q 4722 1175 4119 548 
Q 3516 -78 2506 -78 
Q 1484 -78 881 545 
Q 278 1169 278 2263 
z
M 1231 2294 
Q 1231 1516 1590 1114 
Q 1950 713 2503 713 
Q 3056 713 3411 1111 
Q 3766 1509 3766 2306 
Q 3766 3094 3420 3481 
Q 3075 3869 2503 3869 
Q 1931 3869 1581 3476 
Q 1231 3084 1231 2294 
z
" transform="scale(0.015625)"/>
      <path id="Arial-BoldMT-4e" d="M 475 0 
L 475 4581 
L 1375 4581 
L 3250 1522 
L 3250 4581 
L 4109 4581 
L 4109 0 
L 3181 0 
L 1334 2988 
L 1334 0 
L 475 0 
z
" transform="scale(0.015625)"/>
     </defs>
     <use xlink:href="#Arial-BoldMT-55"/>
     <use xlink:href="#Arial-BoldMT-73" transform="translate(72.216797 0)"/>
     <use xlink:href="#Arial-BoldMT-65" transform="translate(127.832031 0)"/>
     <use xlink:href="#Arial-BoldMT-20" transform="translate(183.447266 0)"/>
     <use xlink:href="#Arial-BoldMT-4a" transform="translate(211.230469 0)"/>
     <use xlink:href="#Arial-BoldMT-53" transform="translate(266.845703 0)"/>
     <use xlink:href="#Arial-BoldMT-4f" transform="translate(333.544922 0)"/>
     <use xlink:href="#Arial-BoldMT-4e" transform="translate(411.328125 0)"/>
    </g>
   </g>
   <g id="text_5">
    <!-- Is data -->
    <g style="fill: #262626" transform="translate(764.442578 353.166172) scale(0.15 -0.15)">
     <defs>
      <path id="Arial-BoldMT-49" d="M 438 0 
L 438 4581 
L 1363 4581 
L 1363 0 
L 438 0 
z
" transform="scale(0.015625)"/>
      <path id="Arial-BoldMT-64" d="M 3503 0 
L 2688 0 
L 2688 488 
Q 2484 203 2207 64 
Q 1931 -75 1650 -75 
Q 1078 -75 670 386 
Q 263 847 263 1672 
Q 263 2516 659 2955 
Q 1056 3394 1663 3394 
Q 2219 3394 2625 2931 
L 2625 4581 
L 3503 4581 
L 3503 0 
z
M 1159 1731 
Q 1159 1200 1306 963 
Q 1519 619 1900 619 
Q 2203 619 2415 876 
Q 2628 1134 2628 1647 
Q 2628 2219 2422 2470 
Q 2216 2722 1894 2722 
Q 1581 2722 1370 2473 
Q 1159 2225 1159 1731 
z
" transform="scale(0.015625)"/>
     </defs>
     <use xlink:href="#Arial-BoldMT-49"/>
     <use xlink:href="#Arial-BoldMT-73" transform="translate(27.783203 0)"/>
     <use xlink:href="#Arial-BoldMT-20" transform="translate(83.398438 0)"/>
     <use xlink:href="#Arial-BoldMT-64" transform="translate(111.181641 0)"/>
     <use xlink:href="#Arial-BoldMT-61" transform="translate(172.265625 0)"/>
     <use xlink:href="#Arial-BoldMT-74" transform="translate(227.880859 0)"/>
     <use xlink:href="#Arial-BoldMT-61" transform="translate(261.181641 0)"/>
    </g>
    <!-- tabular? -->
    <g style="fill: #262626" transform="translate(758.616016 369.010391) scale(0.15 -0.15)">
     <defs>
      <path id="Arial-BoldMT-62" d="M 422 0 
L 422 4581 
L 1300 4581 
L 1300 2931 
Q 1706 3394 2263 3394 
Q 2869 3394 3266 2955 
Q 3663 2516 3663 1694 
Q 3663 844 3258 384 
Q 2853 -75 2275 -75 
Q 1991 -75 1714 67 
Q 1438 209 1238 488 
L 1238 0 
L 422 0 
z
M 1294 1731 
Q 1294 1216 1456 969 
Q 1684 619 2063 619 
Q 2353 619 2558 867 
Q 2763 1116 2763 1650 
Q 2763 2219 2556 2470 
Q 2350 2722 2028 2722 
Q 1713 2722 1503 2476 
Q 1294 2231 1294 1731 
z
" transform="scale(0.015625)"/>
     </defs>
     <use xlink:href="#Arial-BoldMT-74"/>
     <use xlink:href="#Arial-BoldMT-61" transform="translate(33.300781 0)"/>
     <use xlink:href="#Arial-BoldMT-62" transform="translate(88.916016 0)"/>
     <use xlink:href="#Arial-BoldMT-75" transform="translate(150 0)"/>
     <use xlink:href="#Arial-BoldMT-6c" transform="translate(211.083984 0)"/>
     <use xlink:href="#Arial-BoldMT-61" transform="translate(238.867188 0)"/>
     <use xlink:href="#Arial-BoldMT-72" transform="translate(294.482422 0)"/>
     <use xlink:href="#Arial-BoldMT-3f" transform="translate(333.398438 0)"/>
    </g>
   </g>
   <g id="text_6">
    <!-- Use YAML -->
    <g transform="translate(744.672344 606.865937) scale(0.18 -0.18)">
     <defs>
      <path id="Arial-BoldMT-59" d="M 1669 0 
L 1669 1928 
L -9 4581 
L 1075 4581 
L 2153 2769 
L 3209 4581 
L 4275 4581 
L 2591 1922 
L 2591 0 
L 1669 0 
z
" transform="scale(0.015625)"/>
      <path id="Arial-BoldMT-41" d="M 4597 0 
L 3591 0 
L 3191 1041 
L 1359 1041 
L 981 0 
L 0 0 
L 1784 4581 
L 2763 4581 
L 4597 0 
z
M 2894 1813 
L 2263 3513 
L 1644 1813 
L 2894 1813 
z
" transform="scale(0.015625)"/>
     </defs>
     <use xlink:href="#Arial-BoldMT-55"/>
     <use xlink:href="#Arial-BoldMT-73" transform="translate(72.216797 0)"/>
     <use xlink:href="#Arial-BoldMT-65" transform="translate(127.832031 0)"/>
     <use xlink:href="#Arial-BoldMT-20" transform="translate(183.447266 0)"/>
     <use xlink:href="#Arial-BoldMT-59" transform="translate(209.480469 0)"/>
     <use xlink:href="#Arial-BoldMT-41" transform="translate(267.054688 0)"/>
     <use xlink:href="#Arial-BoldMT-4d" transform="translate(339.271484 0)"/>
     <use xlink:href="#Arial-BoldMT-4c" transform="translate(422.572266 0)"/>
    </g>
   </g>
   <g id="text_7">
    <!-- Uniform -->
    <g style="fill: #262626" transform="translate(1114.452734 353.166172) scale(0.15 -0.15)">
     <defs>
      <path id="Arial-BoldMT-66" d="M 75 3319 
L 563 3319 
L 563 3569 
Q 563 3988 652 4194 
Q 741 4400 980 4529 
Q 1219 4659 1584 4659 
Q 1959 4659 2319 4547 
L 2200 3934 
Q 1991 3984 1797 3984 
Q 1606 3984 1523 3895 
Q 1441 3806 1441 3553 
L 1441 3319 
L 2097 3319 
L 2097 2628 
L 1441 2628 
L 1441 0 
L 563 0 
L 563 2628 
L 75 2628 
L 75 3319 
z
" transform="scale(0.015625)"/>
     </defs>
     <use xlink:href="#Arial-BoldMT-55"/>
     <use xlink:href="#Arial-BoldMT-6e" transform="translate(72.216797 0)"/>
     <use xlink:href="#Arial-BoldMT-69" transform="translate(133.300781 0)"/>
     <use xlink:href="#Arial-BoldMT-66" transform="translate(161.083984 0)"/>
     <use xlink:href="#Arial-BoldMT-6f" transform="translate(194.384766 0)"/>
     <use xlink:href="#Arial-BoldMT-72" transform="translate(255.46875 0)"/>
     <use xlink:href="#Arial-BoldMT-6d" transform="translate(294.384766 0)"/>
    </g>
    <!-- schema? -->
    <g style="fill: #262626" transform="translate(1110.686328 369.010391) scale(0.15 -0.15)">
     <defs>
      <path id="Arial-BoldMT-68" d="M 1334 4581 
L 1334 2897 
Q 1759 3394 2350 3394 
Q 2653 3394 2897 3281 
Q 3141 3169 3264 2994 
Q 3388 2819 3433 2606 
Q 3478 2394 3478 1947 
L 3478 0 
L 2600 0 
L 2600 1753 
Q 2600 2275 2550 2415 
Q 2500 2556 2373 2639 
Q 2247 2722 2056 2722 
Q 1838 2722 1666 2615 
Q 1494 2509 1414 2295 
Q 1334 2081 1334 1663 
L 1334 0 
L 456 0 
L 456 4581 
L 1334 4581 
z
" transform="scale(0.015625)"/>
     </defs>
     <use xlink:href="#Arial-BoldMT-73"/>
     <use xlink:href="#Arial-BoldMT-63" transform="translate(55.615234 0)"/>
     <use xlink:href="#Arial-BoldMT-68" transform="translate(111.230469 0)"/>
     <use xlink:href="#Arial-BoldMT-65" transform="translate(172.314453 0)"/>
     <use xlink:href="#Arial-BoldMT-6d" transform="translate(227.929688 0)"/>
     <use xlink:href="#Arial-BoldMT-61" transform="translate(316.845703 0)"/>
     <use xlink:href="#Arial-BoldMT-3f" transform="translate(372.460938 0)"/>
    </g>
   </g>
   <g id="text_8">
    <!-- Use YAML -->
    <g transform="translate(1099.672344 137.865937) scale(0.18 -0.18)">
     <use xlink:href="#Arial-BoldMT-55"/>
     <use xlink:href="#Arial-BoldMT-73" transform="translate(72.216797 0)"/>
     <use xlink:href="#Arial-BoldMT-65" transform="translate(127.832031 0)"/>
     <use xlink:href="#Arial-BoldMT-20" transform="translate(183.447266 0)"/>
     <use xlink:href="#Arial-BoldMT-59" transform="translate(209.480469 0)"/>
     <use xlink:href="#Arial-BoldMT-41" transform="translate(267.054688 0)"/>
     <use xlink:href="#Arial-BoldMT-4d" transform="translate(339.271484 0)"/>
     <use xlink:href="#Arial-BoldMT-4c" transform="translate(422.572266 0)"/>
    </g>
   </g>
   <g id="text_9">
    <!-- Use TOON -->
    <g style="fill: #ffffff" transform="translate(1311.350469 361.865937) scale(0.18 -0.18)">
     <use xlink:href="#Arial-BoldMT-55"/>
     <use xlink:href="#Arial-BoldMT-73" transform="translate(72.216797 0)"/>
     <use xlink:href="#Arial-BoldMT-65" transform="translate(127.832031 0)"/>
     <use xlink:href="#Arial-BoldMT-20" transform="translate(183.447266 0)"/>
     <use xlink:href="#Arial-BoldMT-54" transform="translate(211.230469 0)"/>
     <use xlink:href="#Arial-BoldMT-4f" transform="translate(270.564453 0)"/>
     <use xlink:href="#Arial-BoldMT-4f" transform="translate(348.347656 0)"/>
     <use xlink:href="#Arial-BoldMT-4e" transform="translate(426.130859 0)"/>
    </g>
   </g>
   <g id="patch_10">
    <path d="M 271.897742 357.2 
Q 287.648956 357.2 300.605085 357.2 
" style="fill: none; stroke: #000000; stroke-width: 2.5; stroke-linecap: round"/>
    <path d="M 292.605085 353.2 
L 300.605085 357.2 
L 292.605085 361.2 
z
" style="stroke: #000000; stroke-width: 2.5; stroke-linecap: round"/>
   </g>
   <g id="patch_11">
    <path d="M 433.2 250.200275 
Q 433.2 211.949118 433.2 176.493047 
" style="fill: none; stroke: #000000; stroke-width: 2.5; stroke-linecap: round"/>
    <path d="M 429.2 184.493047 
L 433.2 176.493047 
L 437.2 184.493047 
z
" style="stroke: #000000; stroke-width: 2.5; stroke-linecap: round"/>
   </g>
   <g id="text_10">
    <!-- Output -->
    <g style="fill: #262626" transform="translate(468.7 211.95) scale(0.15 -0.15)">
     <defs>
      <path id="Arial-BoldItalicMT-4f" d="M 559 1797 
Q 559 2203 681 2653 
Q 841 3256 1167 3700 
Q 1494 4144 1991 4401 
Q 2488 4659 3122 4659 
Q 3972 4659 4495 4131 
Q 5019 3603 5019 2731 
Q 5019 2006 4678 1328 
Q 4338 650 3753 284 
Q 3169 -81 2431 -81 
Q 1791 -81 1356 209 
Q 922 500 740 929 
Q 559 1359 559 1797 
z
M 1491 1816 
Q 1491 1344 1778 1025 
Q 2066 706 2534 706 
Q 2916 706 3267 957 
Q 3619 1209 3848 1720 
Q 4078 2231 4078 2716 
Q 4078 3256 3787 3564 
Q 3497 3872 3047 3872 
Q 2356 3872 1923 3228 
Q 1491 2584 1491 1816 
z
" transform="scale(0.015625)"/>
      <path id="Arial-BoldItalicMT-75" d="M 944 3319 
L 1841 3319 
L 1431 1353 
Q 1356 1000 1356 913 
Q 1356 769 1462 666 
Q 1569 563 1734 563 
Q 1853 563 1968 608 
Q 2084 653 2206 745 
Q 2328 838 2425 956 
Q 2522 1075 2606 1269 
Q 2666 1413 2734 1738 
L 3066 3319 
L 3963 3319 
L 3269 0 
L 2431 0 
L 2525 450 
Q 1975 -78 1328 -78 
Q 919 -78 684 156 
Q 450 391 450 784 
Q 450 956 556 1469 
L 944 3319 
z
" transform="scale(0.015625)"/>
      <path id="Arial-BoldItalicMT-74" d="M 481 2653 
L 619 3319 
L 1056 3319 
L 1166 3850 
L 2194 4469 
L 1953 3319 
L 2500 3319 
L 2363 2653 
L 1813 2653 
L 1522 1263 
Q 1444 884 1444 831 
Q 1444 728 1509 670 
Q 1575 613 1747 613 
Q 1806 613 2044 634 
L 1903 -31 
Q 1672 -78 1428 -78 
Q 953 -78 737 105 
Q 522 288 522 613 
Q 522 766 638 1319 
L 916 2653 
L 481 2653 
z
" transform="scale(0.015625)"/>
      <path id="Arial-BoldItalicMT-70" d="M 922 3319 
L 1772 3319 
L 1700 2978 
Q 1972 3203 2209 3300 
Q 2447 3397 2719 3397 
Q 3241 3397 3558 3037 
Q 3875 2678 3875 1966 
Q 3875 1069 3328 450 
Q 2859 -78 2219 -78 
Q 1559 -78 1222 456 
L 863 -1266 
L -34 -1266 
L 922 3319 
z
M 1463 1416 
Q 1463 1028 1652 814 
Q 1841 600 2097 600 
Q 2319 600 2525 761 
Q 2731 922 2867 1295 
Q 3003 1669 3003 1988 
Q 3003 2359 2825 2557 
Q 2647 2756 2372 2756 
Q 2116 2756 1905 2573 
Q 1694 2391 1578 2036 
Q 1463 1681 1463 1416 
z
" transform="scale(0.015625)"/>
     </defs>
     <use xlink:href="#Arial-BoldItalicMT-4f"/>
     <use xlink:href="#Arial-BoldItalicMT-75" transform="translate(77.783203 0)"/>
     <use xlink:href="#Arial-BoldItalicMT-74" transform="translate(138.867188 0)"/>
     <use xlink:href="#Arial-BoldItalicMT-70" transform="translate(172.167969 0)"/>
     <use xlink:href="#Arial-BoldItalicMT-75" transform="translate(233.251953 0)"/>
     <use xlink:href="#Arial-BoldItalicMT-74" transform="translate(294.335938 0)"/>
    </g>
   </g>
   <g id="patch_12">
    <path d="M 562.999042 357.2 
Q 610.699294 357.2 655.604462 357.2 
" style="fill: none; stroke: #000000; stroke-width: 2.5; stroke-linecap: round"/>
    <path d="M 647.604462 353.2 
L 655.604462 357.2 
L 647.604462 361.2 
z
" style="stroke: #000000; stroke-width: 2.5; stroke-linecap: round"/>
   </g>
   <g id="text_11">
    <!-- Input -->
    <g style="fill: #262626" transform="translate(610.7 329.2) scale(0.15 -0.15)">
     <defs>
      <path id="Arial-BoldItalicMT-49" d="M 222 0 
L 1181 4581 
L 2122 4581 
L 1166 0 
L 222 0 
z
" transform="scale(0.015625)"/>
      <path id="Arial-BoldItalicMT-6e" d="M 963 3319 
L 1813 3319 
L 1725 2888 
Q 2044 3163 2320 3280 
Q 2597 3397 2903 3397 
Q 3313 3397 3548 3162 
Q 3784 2928 3784 2541 
Q 3784 2366 3681 1878 
L 3291 0 
L 2394 0 
L 2788 1884 
Q 2875 2306 2875 2388 
Q 2875 2559 2773 2657 
Q 2672 2756 2491 2756 
Q 2294 2756 2053 2590 
Q 1813 2425 1675 2153 
Q 1575 1959 1450 1363 
L 1166 0 
L 269 0 
L 963 3319 
z
" transform="scale(0.015625)"/>
     </defs>
     <use xlink:href="#Arial-BoldItalicMT-49"/>
     <use xlink:href="#Arial-BoldItalicMT-6e" transform="translate(27.783203 0)"/>
     <use xlink:href="#Arial-BoldItalicMT-70" transform="translate(88.867188 0)"/>
     <use xlink:href="#Arial-BoldItalicMT-75" transform="translate(149.951172 0)"/>
     <use xlink:href="#Arial-BoldItalicMT-74" transform="translate(211.035156 0)"/>
    </g>
   </g>
   <g id="patch_13">
    <path d="M 788.2 464.19791 
Q 788.2 512.948407 788.2 558.90382 
" style="fill: none; stroke: #000000; stroke-width: 2.5; stroke-linecap: round"/>
    <path d="M 792.2 550.90382 
L 788.2 558.90382 
L 784.2 550.90382 
z
" style="stroke: #000000; stroke-width: 2.5; stroke-linecap: round"/>
   </g>
   <g id="text_12">
    <!-- No -->
    <g style="fill: #262626" transform="translate(823.7 512.95) scale(0.15 -0.15)">
     <defs>
      <path id="Arial-BoldItalicMT-4e" d="M 3925 0 
L 3047 0 
L 1809 3078 
L 1166 0 
L 288 0 
L 1244 4581 
L 2125 4581 
L 3366 1516 
L 4006 4581 
L 4881 4581 
L 3925 0 
z
" transform="scale(0.015625)"/>
      <path id="Arial-BoldItalicMT-6f" d="M 388 1378 
Q 388 2300 908 2848 
Q 1428 3397 2275 3397 
Q 3009 3397 3421 2992 
Q 3834 2588 3834 1903 
Q 3834 1097 3318 509 
Q 2803 -78 1938 -78 
Q 1469 -78 1106 109 
Q 744 297 566 640 
Q 388 984 388 1378 
z
M 2944 2019 
Q 2944 2338 2758 2530 
Q 2572 2722 2278 2722 
Q 1988 2722 1763 2542 
Q 1538 2363 1413 2020 
Q 1288 1678 1288 1391 
Q 1288 1034 1481 825 
Q 1675 616 1969 616 
Q 2338 616 2588 931 
Q 2944 1378 2944 2019 
z
" transform="scale(0.015625)"/>
     </defs>
     <use xlink:href="#Arial-BoldItalicMT-4e"/>
     <use xlink:href="#Arial-BoldItalicMT-6f" transform="translate(72.216797 0)"/>
    </g>
   </g>
   <g id="patch_14">
    <path d="M 917.999042 357.2 
Q 965.699294 357.2 1010.604462 357.2 
" style="fill: none; stroke: #000000; stroke-width: 2.5; stroke-linecap: round"/>
    <path d="M 1002.604462 353.2 
L 1010.604462 357.2 
L 1002.604462 361.2 
z
" style="stroke: #000000; stroke-width: 2.5; stroke-linecap: round"/>
   </g>
   <g id="text_13">
    <!-- Yes -->
    <g style="fill: #262626" transform="translate(965.7 329.2) scale(0.15 -0.15)">
     <defs>
      <path id="Arial-BoldItalicMT-59" d="M 2566 0 
L 1625 0 
L 1997 1784 
L 734 4581 
L 1738 4581 
L 2306 3288 
Q 2509 2822 2578 2616 
Q 2694 2819 2847 3047 
L 3281 3653 
L 3928 4581 
L 5022 4581 
L 2922 1697 
L 2566 0 
z
" transform="scale(0.015625)"/>
      <path id="Arial-BoldItalicMT-65" d="M 3488 1381 
L 1238 1381 
Q 1234 1328 1234 1300 
Q 1234 969 1423 766 
Q 1613 563 1884 563 
Q 2331 563 2581 1025 
L 3384 891 
Q 3150 406 2758 164 
Q 2366 -78 1878 -78 
Q 1209 -78 790 345 
Q 372 769 372 1466 
Q 372 2147 750 2678 
Q 1266 3397 2222 3397 
Q 2831 3397 3190 3020 
Q 3550 2644 3550 1966 
Q 3550 1641 3488 1381 
z
M 2731 1928 
Q 2734 1988 2734 2019 
Q 2734 2388 2568 2572 
Q 2403 2756 2125 2756 
Q 1847 2756 1626 2547 
Q 1406 2338 1328 1928 
L 2731 1928 
z
" transform="scale(0.015625)"/>
      <path id="Arial-BoldItalicMT-73" d="M 141 928 
L 1009 1066 
Q 1125 791 1297 677 
Q 1469 563 1766 563 
Q 2072 563 2256 700 
Q 2384 794 2384 928 
Q 2384 1019 2319 1091 
Q 2250 1159 1947 1259 
Q 1134 1528 941 1684 
Q 638 1928 638 2322 
Q 638 2716 931 3000 
Q 1341 3397 2147 3397 
Q 2788 3397 3116 3162 
Q 3444 2928 3531 2528 
L 2703 2384 
Q 2638 2566 2491 2656 
Q 2291 2778 2009 2778 
Q 1728 2778 1604 2684 
Q 1481 2591 1481 2469 
Q 1481 2344 1606 2263 
Q 1684 2213 2109 2088 
Q 2766 1897 2988 1713 
Q 3300 1453 3300 1088 
Q 3300 616 2903 269 
Q 2506 -78 1784 -78 
Q 1066 -78 673 186 
Q 281 450 141 928 
z
" transform="scale(0.015625)"/>
     </defs>
     <use xlink:href="#Arial-BoldItalicMT-59"/>
     <use xlink:href="#Arial-BoldItalicMT-65" transform="translate(62.949219 0)"/>
     <use xlink:href="#Arial-BoldItalicMT-73" transform="translate(118.564453 0)"/>
    </g>
   </g>
   <g id="patch_15">
    <path d="M 1143.2 250.200275 
Q 1143.2 211.949118 1143.2 176.493047 
" style="fill: none; stroke: #000000; stroke-width: 2.5; stroke-linecap: round"/>
    <path d="M 1139.2 184.493047 
L 1143.2 176.493047 
L 1147.2 184.493047 
z
" style="stroke: #000000; stroke-width: 2.5; stroke-linecap: round"/>
   </g>
   <g id="text_14">
    <!-- No -->
    <g style="fill: #262626" transform="translate(1178.7 211.95) scale(0.15 -0.15)">
     <use xlink:href="#Arial-BoldItalicMT-4e"/>
     <use xlink:href="#Arial-BoldItalicMT-6f" transform="translate(72.216797 0)"/>
    </g>
   </g>
   <g id="patch_16">
    <path d="M 1268.999658 357.2 
Q 1267.448346 357.2 1268.692119 357.2 
" style="fill: none; stroke: #000000; stroke-width: 2.5; stroke-linecap: round"/>
    <path d="M 1276.692119 361.2 
L 1268.692119 357.2 
L 1276.692119 353.2 
z
" style="stroke: #000000; stroke-width: 2.5; stroke-linecap: round"/>
   </g>
   <g id="text_15">
    <!-- Yes -->
    <g style="fill: #262626" transform="translate(1267.45 329.2) scale(0.15 -0.15)">
     <use xlink:href="#Arial-BoldItalicMT-59"/>
     <use xlink:href="#Arial-BoldItalicMT-65" transform="translate(62.949219 0)"/>
     <use xlink:href="#Arial-BoldItalicMT-73" transform="translate(118.564453 0)"/>
    </g>
   </g>
  </g>
 </g>
 <defs>
  <clipPath id="p9690116eeb">
   <rect x="7.2" y="7.2" width="1420" height="700"/>
  </clipPath>
 </defs>
</svg>
