<?xml version="1.0" encoding="utf-8" standalone="no"?>
<!DOCTYPE svg PUBLIC "-//W3C//DTD SVG 1.1//EN"
  "http://www.w3.org/Graphics/SVG/1.1/DTD/svg11.dtd">
<svg xmlns:xlink="http://www.w3.org/1999/xlink" width="992.4pt" height="704.4pt" viewBox="0 0 992.4 704.4" xmlns="http://www.w3.org/2000/svg" version="1.1">
 <metadata>
  <rdf:RDF xmlns:dc="http://purl.org/dc/elements/1.1/" xmlns:cc="http://creativecommons.org/ns#" xmlns:rdf="http://www.w3.org/1999/02/22-rdf-syntax-ns#">
   <cc:Work>
    <dc:type rdf:resource="http://purl.org/dc/dcmitype/StillImage"/>
    <dc:date>2025-12-26T02:34:22.196712</dc:date>
    <dc:format>image/svg+xml</dc:format>
    <dc:creator>
     <cc:Agent>
      <dc:title>Matplotlib v3.10.5, https://matplotlib.org/</dc:title>
     </cc:Agent>
    </dc:creator>
   </cc:Work>
  </rdf:RDF>
 </metadata>
 <defs>
  <style type="text/css">*{stroke-linejoin: round; stroke-linecap: butt}</style>
 </defs>
 <g id="figure_1">
  <g id="patch_1">
   <path d="M 0 704.4 
L 992.4 704.4 
L 992.4 0 
L 0 0 
z
" style="fill: #ffffff"/>
  </g>
  <g id="axes_1">
   <g id="patch_2">
    <path d="M 181.842857 372.9 
C 205.927087 372.9 229.028132 363.448642 246.058254 346.627478 
C 263.088377 329.806314 272.657143 306.988718 272.657143 283.2 
C 272.657143 259.411282 263.088377 236.593686 246.058254 219.772522 
C 229.028132 202.951358 205.927087 193.5 181.842857 193.5 
C 157.758627 193.5 134.657582 202.951358 117.62746 219.772522 
C 100.597337 236.593686 91.028571 259.411282 91.028571 283.2 
C 91.028571 306.988718 100.597337 329.806314 117.62746 346.627478 
C 134.657582 363.448642 157.758627 372.9 181.842857 372.9 
z
" clip-path="url(#pe0f6e2ec02)" style="fill: #2ecc71; opacity: 0.9; stroke: #27ae60; stroke-width: 3; stroke-linejoin: miter"/>
   </g>
   <g id="patch_3">
    <path d="M 496.2 372.9 
C 520.28423 372.9 543.385275 363.448642 560.415397 346.627478 
C 577.44552 329.806314 587.014286 306.988718 587.014286 283.2 
C 587.014286 259.411282 577.44552 236.593686 560.415397 219.772522 
C 543.385275 202.951358 520.28423 193.5 496.2 193.5 
C 472.11577 193.5 449.014725 202.951358 431.984603 219.772522 
C 414.95448 236.593686 405.385714 259.411282 405.385714 283.2 
C 405.385714 306.988718 414.95448 329.806314 431.984603 346.627478 
C 449.014725 363.448642 472.11577 372.9 496.2 372.9 
z
" clip-path="url(#pe0f6e2ec02)" style="fill: #2ecc71; opacity: 0.9; stroke: #27ae60; stroke-width: 3; stroke-linejoin: miter"/>
   </g>
   <g id="patch_4">
    <path d="M 810.557143 372.9 
C 834.641373 372.9 857.742418 363.448642 874.77254 346.627478 
C 891.802663 329.806314 901.371429 306.988718 901.371429 283.2 
C 901.371429 259.411282 891.802663 236.593686 874.77254 219.772522 
C 857.742418 202.951358 834.641373 193.5 810.557143 193.5 
C 786.472913 193.5 763.371868 202.951358 746.341746 219.772522 
C 729.311623 236.593686 719.742857 259.411282 719.742857 283.2 
C 719.742857 306.988718 729.311623 329.806314 746.341746 346.627478 
C 763.371868 363.448642 786.472913 372.9 810.557143 372.9 
z
" clip-path="url(#pe0f6e2ec02)" style="fill: #2ecc71; opacity: 0.9; stroke: #27ae60; stroke-width: 3; stroke-linejoin: miter"/>
   </g>
   <g id="patch_5">
    <path d="M 49.114286 666.15 
L 314.571429 666.15 
Q 325.05 666.15 325.05 655.8 
L 325.05 441.9 
Q 325.05 431.55 314.571429 431.55 
L 49.114286 431.55 
Q 38.635714 431.55 38.635714 441.9 
L 38.635714 655.8 
Q 38.635714 666.15 49.114286 666.15 
z
" clip-path="url(#pe0f6e2ec02)" style="fill: #3498db; opacity: 0.3; stroke: #000000; stroke-width: 2; stroke-linejoin: miter"/>
   </g>
   <g id="patch_6">
    <path d="M 363.471429 666.15 
L 628.928571 666.15 
Q 639.407143 666.15 639.407143 655.8 
L 639.407143 441.9 
Q 639.407143 431.55 628.928571 431.55 
L 363.471429 431.55 
Q 352.992857 431.55 352.992857 441.9 
L 352.992857 655.8 
Q 352.992857 666.15 363.471429 666.15 
z
" clip-path="url(#pe0f6e2ec02)" style="fill: #f39c12; opacity: 0.3; stroke: #000000; stroke-width: 2; stroke-linejoin: miter"/>
   </g>
   <g id="patch_7">
    <path d="M 677.828571 666.15 
L 943.285714 666.15 
Q 953.764286 666.15 953.764286 655.8 
L 953.764286 441.9 
Q 953.764286 431.55 943.285714 431.55 
L 677.828571 431.55 
Q 667.35 431.55 667.35 441.9 
L 667.35 655.8 
Q 667.35 666.15 677.828571 666.15 
z
" clip-path="url(#pe0f6e2ec02)" style="fill: #2ecc71; opacity: 0.3; stroke: #000000; stroke-width: 2; stroke-linejoin: miter"/>
   </g>
   <g id="text_1">
    <!-- TOON: Token-Oriented Object Notation -->
    <g style="fill: #262626" transform="translate(273.975 41.7) scale(0.24 -0.24)">
     <defs>
      <path id="Arial-BoldMT-54" d="M 1497 0 
L 1497 3806 
L 138 3806 
L 138 4581 
L 3778 4581 
L 3778 3806 
L 2422 3806 
L 2422 0 
L 1497 0 
z
" transform="scale(0.015625)"/>
      <path id="Arial-BoldMT-4f" d="M 278 2263 
Q 278 2963 488 3438 
Q 644 3788 914 4066 
Q 1184 4344 1506 4478 
Q 1934 4659 2494 4659 
Q 3506 4659 4114 4031 
Q 4722 3403 4722 2284 
Q 4722 1175 4119 548 
Q 3516 -78 2506 -78 
Q 1484 -78 881 545 
Q 278 1169 278 2263 
z
M 1231 2294 
Q 1231 1516 1590 1114 
Q 1950 713 2503 713 
Q 3056 713 3411 1111 
Q 3766 1509 3766 2306 
Q 3766 3094 3420 3481 
Q 3075 3869 2503 3869 
Q 1931 3869 1581 3476 
Q 1231 3084 1231 2294 
z
" transform="scale(0.015625)"/>
      <path id="Arial-BoldMT-4e" d="M 475 0 
L 475 4581 
L 1375 4581 
L 3250 1522 
L 3250 4581 
L 4109 4581 
L 4109 0 
L 3181 0 
L 1334 2988 
L 1334 0 
L 475 0 
z
" transform="scale(0.015625)"/>
      <path id="Arial-BoldMT-3a" d="M 628 2441 
L 628 3319 
L 1506 3319 
L 1506 2441 
L 628 2441 
z
M 628 0 
L 628 878 
L 1506 878 
L 1506 0 
L 628 0 
z
" transform="scale(0.015625)"/>
      <path id="Arial-BoldMT-20" transform="scale(0.015625)"/>
      <path id="Arial-BoldMT-6f" d="M 256 1706 
Q 256 2144 472 2553 
Q 688 2963 1083 3178 
Q 1478 3394 1966 3394 
Q 2719 3394 3200 2905 
Q 3681 2416 3681 1669 
Q 3681 916 3195 420 
Q 2709 -75 1972 -75 
Q 1516 -75 1102 131 
Q 688 338 472 736 
Q 256 1134 256 1706 
z
M 1156 1659 
Q 1156 1166 1390 903 
Q 1625 641 1969 641 
Q 2313 641 2545 903 
Q 2778 1166 2778 1666 
Q 2778 2153 2545 2415 
Q 2313 2678 1969 2678 
Q 1625 2678 1390 2415 
Q 1156 2153 1156 1659 
z
" transform="scale(0.015625)"/>
      <path id="Arial-BoldMT-6b" d="M 428 0 
L 428 4581 
L 1306 4581 
L 1306 2150 
L 2334 3319 
L 3416 3319 
L 2281 2106 
L 3497 0 
L 2550 0 
L 1716 1491 
L 1306 1063 
L 1306 0 
L 428 0 
z
" transform="scale(0.015625)"/>
      <path id="Arial-BoldMT-65" d="M 2381 1056 
L 3256 909 
Q 3088 428 2723 176 
Q 2359 -75 1813 -75 
Q 947 -75 531 491 
Q 203 944 203 1634 
Q 203 2459 634 2926 
Q 1066 3394 1725 3394 
Q 2466 3394 2894 2905 
Q 3322 2416 3303 1406 
L 1103 1406 
Q 1113 1016 1316 798 
Q 1519 581 1822 581 
Q 2028 581 2168 693 
Q 2309 806 2381 1056 
z
M 2431 1944 
Q 2422 2325 2234 2523 
Q 2047 2722 1778 2722 
Q 1491 2722 1303 2513 
Q 1116 2303 1119 1944 
L 2431 1944 
z
" transform="scale(0.015625)"/>
      <path id="Arial-BoldMT-6e" d="M 3478 0 
L 2600 0 
L 2600 1694 
Q 2600 2231 2544 2389 
Q 2488 2547 2361 2634 
Q 2234 2722 2056 2722 
Q 1828 2722 1647 2597 
Q 1466 2472 1398 2265 
Q 1331 2059 1331 1503 
L 1331 0 
L 453 0 
L 453 3319 
L 1269 3319 
L 1269 2831 
Q 1703 3394 2363 3394 
Q 2653 3394 2893 3289 
Q 3134 3184 3257 3021 
Q 3381 2859 3429 2653 
Q 3478 2447 3478 2063 
L 3478 0 
z
" transform="scale(0.015625)"/>
      <path id="Arial-BoldMT-2d" d="M 359 1222 
L 359 2100 
L 2084 2100 
L 2084 1222 
L 359 1222 
z
" transform="scale(0.015625)"/>
      <path id="Arial-BoldMT-72" d="M 1300 0 
L 422 0 
L 422 3319 
L 1238 3319 
L 1238 2847 
Q 1447 3181 1614 3287 
Q 1781 3394 1994 3394 
Q 2294 3394 2572 3228 
L 2300 2463 
Q 2078 2606 1888 2606 
Q 1703 2606 1575 2504 
Q 1447 2403 1373 2137 
Q 1300 1872 1300 1025 
L 1300 0 
z
" transform="scale(0.015625)"/>
      <path id="Arial-BoldMT-69" d="M 459 3769 
L 459 4581 
L 1338 4581 
L 1338 3769 
L 459 3769 
z
M 459 0 
L 459 3319 
L 1338 3319 
L 1338 0 
L 459 0 
z
" transform="scale(0.015625)"/>
      <path id="Arial-BoldMT-74" d="M 1981 3319 
L 1981 2619 
L 1381 2619 
L 1381 1281 
Q 1381 875 1398 808 
Q 1416 741 1477 697 
Q 1538 653 1625 653 
Q 1747 653 1978 738 
L 2053 56 
Q 1747 -75 1359 -75 
Q 1122 -75 931 4 
Q 741 84 652 211 
Q 563 338 528 553 
Q 500 706 500 1172 
L 500 2619 
L 97 2619 
L 97 3319 
L 500 3319 
L 500 3978 
L 1381 4491 
L 1381 3319 
L 1981 3319 
z
" transform="scale(0.015625)"/>
      <path id="Arial-BoldMT-64" d="M 3503 0 
L 2688 0 
L 2688 488 
Q 2484 203 2207 64 
Q 1931 -75 1650 -75 
Q 1078 -75 670 386 
Q 263 847 263 1672 
Q 263 2516 659 2955 
Q 1056 3394 1663 3394 
Q 2219 3394 2625 2931 
L 2625 4581 
L 3503 4581 
L 3503 0 
z
M 1159 1731 
Q 1159 1200 1306 963 
Q 1519 619 1900 619 
Q 2203 619 2415 876 
Q 2628 1134 2628 1647 
Q 2628 2219 2422 2470 
Q 2216 2722 1894 2722 
Q 1581 2722 1370 2473 
Q 1159 2225 1159 1731 
z
" transform="scale(0.015625)"/>
      <path id="Arial-BoldMT-62" d="M 422 0 
L 422 4581 
L 1300 4581 
L 1300 2931 
Q 1706 3394 2263 3394 
Q 2869 3394 3266 2955 
Q 3663 2516 3663 1694 
Q 3663 844 3258 384 
Q 2853 -75 2275 -75 
Q 1991 -75 1714 67 
Q 1438 209 1238 488 
L 1238 0 
L 422 0 
z
M 1294 1731 
Q 1294 1216 1456 969 
Q 1684 619 2063 619 
Q 2353 619 2558 867 
Q 2763 1116 2763 1650 
Q 2763 2219 2556 2470 
Q 2350 2722 2028 2722 
Q 1713 2722 1503 2476 
Q 1294 2231 1294 1731 
z
" transform="scale(0.015625)"/>
      <path id="Arial-BoldMT-6a" d="M 441 3769 
L 441 4581 
L 1319 4581 
L 1319 3769 
L 441 3769 
z
M 1319 3319 
L 1319 103 
Q 1319 -531 1236 -792 
Q 1153 -1053 917 -1200 
Q 681 -1347 316 -1347 
Q 184 -1347 32 -1323 
Q -119 -1300 -294 -1253 
L -141 -503 
Q -78 -516 -23 -523 
Q 31 -531 78 -531 
Q 213 -531 298 -473 
Q 384 -416 412 -334 
Q 441 -253 441 153 
L 441 3319 
L 1319 3319 
z
" transform="scale(0.015625)"/>
      <path id="Arial-BoldMT-63" d="M 3353 2338 
L 2488 2181 
Q 2444 2441 2289 2572 
Q 2134 2703 1888 2703 
Q 1559 2703 1364 2476 
Q 1169 2250 1169 1719 
Q 1169 1128 1367 884 
Q 1566 641 1900 641 
Q 2150 641 2309 783 
Q 2469 925 2534 1272 
L 3397 1125 
Q 3263 531 2881 228 
Q 2500 -75 1859 -75 
Q 1131 -75 698 384 
Q 266 844 266 1656 
Q 266 2478 700 2936 
Q 1134 3394 1875 3394 
Q 2481 3394 2839 3133 
Q 3197 2872 3353 2338 
z
" transform="scale(0.015625)"/>
      <path id="Arial-BoldMT-61" d="M 1116 2306 
L 319 2450 
Q 453 2931 781 3162 
Q 1109 3394 1756 3394 
Q 2344 3394 2631 3255 
Q 2919 3116 3036 2902 
Q 3153 2688 3153 2116 
L 3144 1091 
Q 3144 653 3186 445 
Q 3228 238 3344 0 
L 2475 0 
Q 2441 88 2391 259 
Q 2369 338 2359 363 
Q 2134 144 1878 34 
Q 1622 -75 1331 -75 
Q 819 -75 523 203 
Q 228 481 228 906 
Q 228 1188 362 1408 
Q 497 1628 739 1745 
Q 981 1863 1438 1950 
Q 2053 2066 2291 2166 
L 2291 2253 
Q 2291 2506 2166 2614 
Q 2041 2722 1694 2722 
Q 1459 2722 1328 2630 
Q 1197 2538 1116 2306 
z
M 2291 1594 
Q 2122 1538 1756 1459 
Q 1391 1381 1278 1306 
Q 1106 1184 1106 997 
Q 1106 813 1243 678 
Q 1381 544 1594 544 
Q 1831 544 2047 700 
Q 2206 819 2256 991 
Q 2291 1103 2291 1419 
L 2291 1594 
z
" transform="scale(0.015625)"/>
     </defs>
     <use xlink:href="#Arial-BoldMT-54"/>
     <use xlink:href="#Arial-BoldMT-4f" transform="translate(59.333984 0)"/>
     <use xlink:href="#Arial-BoldMT-4f" transform="translate(137.117188 0)"/>
     <use xlink:href="#Arial-BoldMT-4e" transform="translate(214.900391 0)"/>
     <use xlink:href="#Arial-BoldMT-3a" transform="translate(287.117188 0)"/>
     <use xlink:href="#Arial-BoldMT-20" transform="translate(320.417969 0)"/>
     <use xlink:href="#Arial-BoldMT-54" transform="translate(348.201172 0)"/>
     <use xlink:href="#Arial-BoldMT-6f" transform="translate(401.910156 0)"/>
     <use xlink:href="#Arial-BoldMT-6b" transform="translate(462.994141 0)"/>
     <use xlink:href="#Arial-BoldMT-65" transform="translate(518.609375 0)"/>
     <use xlink:href="#Arial-BoldMT-6e" transform="translate(574.224609 0)"/>
     <use xlink:href="#Arial-BoldMT-2d" transform="translate(635.308594 0)"/>
     <use xlink:href="#Arial-BoldMT-4f" transform="translate(668.609375 0)"/>
     <use xlink:href="#Arial-BoldMT-72" transform="translate(746.392578 0)"/>
     <use xlink:href="#Arial-BoldMT-69" transform="translate(785.308594 0)"/>
     <use xlink:href="#Arial-BoldMT-65" transform="translate(813.091797 0)"/>
     <use xlink:href="#Arial-BoldMT-6e" transform="translate(868.707031 0)"/>
     <use xlink:href="#Arial-BoldMT-74" transform="translate(929.791016 0)"/>
     <use xlink:href="#Arial-BoldMT-65" transform="translate(963.091797 0)"/>
     <use xlink:href="#Arial-BoldMT-64" transform="translate(1018.707031 0)"/>
     <use xlink:href="#Arial-BoldMT-20" transform="translate(1079.791016 0)"/>
     <use xlink:href="#Arial-BoldMT-4f" transform="translate(1107.574219 0)"/>
     <use xlink:href="#Arial-BoldMT-62" transform="translate(1185.357422 0)"/>
     <use xlink:href="#Arial-BoldMT-6a" transform="translate(1246.441406 0)"/>
     <use xlink:href="#Arial-BoldMT-65" transform="translate(1274.224609 0)"/>
     <use xlink:href="#Arial-BoldMT-63" transform="translate(1329.839844 0)"/>
     <use xlink:href="#Arial-BoldMT-74" transform="translate(1385.455078 0)"/>
     <use xlink:href="#Arial-BoldMT-20" transform="translate(1418.755859 0)"/>
     <use xlink:href="#Arial-BoldMT-4e" transform="translate(1446.539062 0)"/>
     <use xlink:href="#Arial-BoldMT-6f" transform="translate(1518.755859 0)"/>
     <use xlink:href="#Arial-BoldMT-74" transform="translate(1579.839844 0)"/>
     <use xlink:href="#Arial-BoldMT-61" transform="translate(1613.140625 0)"/>
     <use xlink:href="#Arial-BoldMT-74" transform="translate(1668.755859 0)"/>
     <use xlink:href="#Arial-BoldMT-69" transform="translate(1702.056641 0)"/>
     <use xlink:href="#Arial-BoldMT-6f" transform="translate(1729.839844 0)"/>
     <use xlink:href="#Arial-BoldMT-6e" transform="translate(1790.923828 0)"/>
    </g>
   </g>
   <g id="text_2">
    <!-- Key Benefits Across Perspectives -->
    <g style="fill: #95a5a6" transform="translate(376.89875 83.1) scale(0.16 -0.16)">
     <defs>
      <path id="Arial-ItalicMT-4b" d="M 284 0 
L 1241 4581 
L 1853 4581 
L 1394 2375 
L 3881 4581 
L 4744 4581 
L 2616 2716 
L 4175 0 
L 3491 0 
L 2169 2322 
L 1209 1488 
L 897 0 
L 284 0 
z
" transform="scale(0.015625)"/>
      <path id="Arial-ItalicMT-65" d="M 2650 1128 
L 3200 1072 
Q 3081 663 2654 294 
Q 2228 -75 1638 -75 
Q 1269 -75 961 95 
Q 653 266 492 591 
Q 331 916 331 1331 
Q 331 1875 582 2386 
Q 834 2897 1234 3145 
Q 1634 3394 2100 3394 
Q 2694 3394 3048 3025 
Q 3403 2656 3403 2019 
Q 3403 1775 3359 1519 
L 916 1519 
Q 903 1422 903 1344 
Q 903 878 1117 633 
Q 1331 388 1641 388 
Q 1931 388 2212 578 
Q 2494 769 2650 1128 
z
M 1006 1950 
L 2869 1950 
Q 2872 2038 2872 2075 
Q 2872 2500 2659 2726 
Q 2447 2953 2113 2953 
Q 1750 2953 1451 2703 
Q 1153 2453 1006 1950 
z
" transform="scale(0.015625)"/>
      <path id="Arial-ItalicMT-79" d="M 0 -1281 
L 34 -750 
Q 209 -800 375 -800 
Q 547 -800 653 -722 
Q 791 -619 953 -334 
L 1134 -9 
L 581 3319 
L 1138 3319 
L 1388 1641 
Q 1463 1144 1516 647 
L 3000 3319 
L 3591 3319 
L 1475 -441 
Q 1169 -991 931 -1169 
Q 694 -1347 384 -1347 
Q 188 -1347 0 -1281 
z
" transform="scale(0.015625)"/>
      <path id="Arial-ItalicMT-20" transform="scale(0.015625)"/>
      <path id="Arial-ItalicMT-42" d="M 278 0 
L 1238 4581 
L 2656 4581 
Q 3044 4581 3231 4550 
Q 3538 4497 3748 4364 
Q 3959 4231 4075 4001 
Q 4191 3772 4191 3494 
Q 4191 3116 3983 2828 
Q 3775 2541 3347 2391 
Q 3719 2269 3903 2023 
Q 4088 1778 4088 1450 
Q 4088 1072 3870 725 
Q 3653 378 3295 189 
Q 2938 0 2497 0 
L 278 0 
z
M 1441 2625 
L 2369 2625 
Q 3034 2625 3326 2837 
Q 3619 3050 3619 3456 
Q 3619 3650 3528 3790 
Q 3438 3931 3286 3995 
Q 3134 4059 2716 4059 
L 1741 4059 
L 1441 2625 
z
M 1000 519 
L 2044 519 
Q 2459 519 2603 547 
Q 2894 597 3075 717 
Q 3256 838 3359 1034 
Q 3463 1231 3463 1447 
Q 3463 1769 3261 1936 
Q 3059 2103 2494 2103 
L 1331 2103 
L 1000 519 
z
" transform="scale(0.015625)"/>
      <path id="Arial-ItalicMT-6e" d="M 213 0 
L 906 3319 
L 1419 3319 
L 1297 2741 
Q 1631 3081 1922 3237 
Q 2213 3394 2516 3394 
Q 2919 3394 3148 3175 
Q 3378 2956 3378 2591 
Q 3378 2406 3297 2009 
L 2875 0 
L 2309 0 
L 2750 2103 
Q 2816 2409 2816 2556 
Q 2816 2722 2702 2825 
Q 2588 2928 2372 2928 
Q 1938 2928 1598 2615 
Q 1259 2303 1100 1544 
L 778 0 
L 213 0 
z
" transform="scale(0.015625)"/>
      <path id="Arial-ItalicMT-66" d="M 291 0 
L 894 2881 
L 388 2881 
L 478 3319 
L 984 3319 
L 1081 3791 
Q 1156 4144 1236 4300 
Q 1316 4456 1495 4557 
Q 1675 4659 1984 4659 
Q 2200 4659 2609 4569 
L 2506 4075 
Q 2219 4150 2025 4150 
Q 1859 4150 1773 4067 
Q 1688 3984 1625 3675 
L 1550 3319 
L 2181 3319 
L 2091 2881 
L 1459 2881 
L 856 0 
L 291 0 
z
" transform="scale(0.015625)"/>
      <path id="Arial-ItalicMT-69" d="M 1016 3941 
L 1150 4581 
L 1713 4581 
L 1578 3941 
L 1016 3941 
z
M 191 0 
L 884 3319 
L 1450 3319 
L 756 0 
L 191 0 
z
" transform="scale(0.015625)"/>
      <path id="Arial-ItalicMT-74" d="M 1534 459 
L 1441 -3 
Q 1238 -56 1047 -56 
Q 709 -56 509 109 
Q 359 234 359 450 
Q 359 559 441 953 
L 844 2881 
L 397 2881 
L 488 3319 
L 934 3319 
L 1106 4134 
L 1753 4525 
L 1500 3319 
L 2056 3319 
L 1963 2881 
L 1409 2881 
L 1025 1047 
Q 953 697 953 628 
Q 953 528 1011 475 
Q 1069 422 1200 422 
Q 1388 422 1534 459 
z
" transform="scale(0.015625)"/>
      <path id="Arial-ItalicMT-73" d="M 266 1134 
L 831 1169 
Q 831 925 906 753 
Q 981 581 1182 472 
Q 1384 363 1653 363 
Q 2028 363 2215 513 
Q 2403 663 2403 866 
Q 2403 1013 2291 1144 
Q 2175 1275 1726 1467 
Q 1278 1659 1153 1738 
Q 944 1866 837 2039 
Q 731 2213 731 2438 
Q 731 2831 1043 3112 
Q 1356 3394 1919 3394 
Q 2544 3394 2870 3105 
Q 3197 2816 3209 2344 
L 2656 2306 
Q 2644 2606 2444 2781 
Q 2244 2956 1878 2956 
Q 1584 2956 1421 2822 
Q 1259 2688 1259 2531 
Q 1259 2375 1400 2256 
Q 1494 2175 1884 2006 
Q 2534 1725 2703 1563 
Q 2972 1303 2972 931 
Q 2972 684 2820 446 
Q 2669 209 2358 67 
Q 2047 -75 1625 -75 
Q 1050 -75 647 209 
Q 244 494 266 1134 
z
" transform="scale(0.015625)"/>
      <path id="Arial-ItalicMT-41" d="M -128 0 
L 2469 4581 
L 3191 4581 
L 3947 0 
L 3353 0 
L 3131 1319 
L 1278 1319 
L 544 0 
L -128 0 
z
M 1541 1791 
L 3056 1791 
L 2878 2941 
Q 2775 3625 2750 4081 
Q 2594 3688 2294 3147 
L 1541 1791 
z
" transform="scale(0.015625)"/>
      <path id="Arial-ItalicMT-63" d="M 2503 1209 
L 3069 1150 
Q 2856 528 2464 226 
Q 2072 -75 1572 -75 
Q 1031 -75 695 275 
Q 359 625 359 1253 
Q 359 1797 575 2322 
Q 791 2847 1192 3120 
Q 1594 3394 2109 3394 
Q 2644 3394 2956 3092 
Q 3269 2791 3269 2294 
L 2713 2256 
Q 2709 2572 2529 2750 
Q 2350 2928 2056 2928 
Q 1716 2928 1466 2712 
Q 1216 2497 1073 2058 
Q 931 1619 931 1213 
Q 931 788 1118 575 
Q 1306 363 1581 363 
Q 1856 363 2107 572 
Q 2359 781 2503 1209 
z
" transform="scale(0.015625)"/>
      <path id="Arial-ItalicMT-72" d="M 213 0 
L 906 3319 
L 1406 3319 
L 1266 2641 
Q 1522 3025 1767 3209 
Q 2013 3394 2269 3394 
Q 2438 3394 2684 3272 
L 2453 2747 
Q 2306 2853 2131 2853 
Q 1834 2853 1521 2522 
Q 1209 2191 1031 1331 
L 750 0 
L 213 0 
z
" transform="scale(0.015625)"/>
      <path id="Arial-ItalicMT-6f" d="M 313 1259 
Q 313 2231 884 2869 
Q 1356 3394 2122 3394 
Q 2722 3394 3089 3019 
Q 3456 2644 3456 2006 
Q 3456 1434 3225 942 
Q 2994 450 2567 187 
Q 2141 -75 1669 -75 
Q 1281 -75 964 90 
Q 647 256 480 559 
Q 313 863 313 1259 
z
M 878 1316 
Q 878 847 1103 605 
Q 1328 363 1675 363 
Q 1856 363 2034 436 
Q 2213 509 2366 659 
Q 2519 809 2626 1001 
Q 2734 1194 2800 1416 
Q 2897 1725 2897 2009 
Q 2897 2459 2670 2707 
Q 2444 2956 2100 2956 
Q 1834 2956 1615 2829 
Q 1397 2703 1220 2459 
Q 1044 2216 961 1892 
Q 878 1569 878 1316 
z
" transform="scale(0.015625)"/>
      <path id="Arial-ItalicMT-50" d="M 275 0 
L 1234 4581 
L 3147 4581 
Q 3644 4581 3892 4467 
Q 4141 4353 4303 4076 
Q 4466 3800 4466 3456 
Q 4466 3172 4350 2878 
Q 4234 2584 4057 2393 
Q 3881 2203 3700 2106 
Q 3519 2009 3313 1963 
Q 2872 1859 2422 1859 
L 1275 1859 
L 888 0 
L 275 0 
z
M 1384 2378 
L 2394 2378 
Q 2981 2378 3256 2504 
Q 3531 2631 3697 2890 
Q 3863 3150 3863 3441 
Q 3863 3666 3775 3808 
Q 3688 3950 3528 4017 
Q 3369 4084 2916 4084 
L 1741 4084 
L 1384 2378 
z
" transform="scale(0.015625)"/>
      <path id="Arial-ItalicMT-70" d="M -66 -1272 
L 894 3319 
L 1416 3319 
L 1319 2856 
Q 1609 3159 1839 3276 
Q 2069 3394 2325 3394 
Q 2800 3394 3112 3048 
Q 3425 2703 3425 2059 
Q 3425 1541 3253 1114 
Q 3081 688 2831 428 
Q 2581 169 2325 47 
Q 2069 -75 1800 -75 
Q 1203 -75 875 531 
L 500 -1272 
L -66 -1272 
z
M 1053 1356 
Q 1053 984 1106 841 
Q 1184 638 1362 513 
Q 1541 388 1775 388 
Q 2263 388 2563 936 
Q 2863 1484 2863 2056 
Q 2863 2478 2661 2708 
Q 2459 2938 2159 2938 
Q 1944 2938 1759 2823 
Q 1575 2709 1417 2482 
Q 1259 2256 1156 1928 
Q 1053 1600 1053 1356 
z
" transform="scale(0.015625)"/>
      <path id="Arial-ItalicMT-76" d="M 1050 0 
L 506 3319 
L 1056 3319 
L 1341 1491 
Q 1388 1191 1456 513 
Q 1619 866 1872 1322 
L 2981 3319 
L 3578 3319 
L 1678 0 
L 1050 0 
z
" transform="scale(0.015625)"/>
     </defs>
     <use xlink:href="#Arial-ItalicMT-4b"/>
     <use xlink:href="#Arial-ItalicMT-65" transform="translate(66.699219 0)"/>
     <use xlink:href="#Arial-ItalicMT-79" transform="translate(122.314453 0)"/>
     <use xlink:href="#Arial-ItalicMT-20" transform="translate(172.314453 0)"/>
     <use xlink:href="#Arial-ItalicMT-42" transform="translate(200.097656 0)"/>
     <use xlink:href="#Arial-ItalicMT-65" transform="translate(266.796875 0)"/>
     <use xlink:href="#Arial-ItalicMT-6e" transform="translate(322.412109 0)"/>
     <use xlink:href="#Arial-ItalicMT-65" transform="translate(378.027344 0)"/>
     <use xlink:href="#Arial-ItalicMT-66" transform="translate(433.642578 0)"/>
     <use xlink:href="#Arial-ItalicMT-69" transform="translate(461.425781 0)"/>
     <use xlink:href="#Arial-ItalicMT-74" transform="translate(483.642578 0)"/>
     <use xlink:href="#Arial-ItalicMT-73" transform="translate(511.425781 0)"/>
     <use xlink:href="#Arial-ItalicMT-20" transform="translate(561.425781 0)"/>
     <use xlink:href="#Arial-ItalicMT-41" transform="translate(585.458984 0)"/>
     <use xlink:href="#Arial-ItalicMT-63" transform="translate(652.158203 0)"/>
     <use xlink:href="#Arial-ItalicMT-72" transform="translate(702.158203 0)"/>
     <use xlink:href="#Arial-ItalicMT-6f" transform="translate(735.458984 0)"/>
     <use xlink:href="#Arial-ItalicMT-73" transform="translate(791.074219 0)"/>
     <use xlink:href="#Arial-ItalicMT-73" transform="translate(841.074219 0)"/>
     <use xlink:href="#Arial-ItalicMT-20" transform="translate(891.074219 0)"/>
     <use xlink:href="#Arial-ItalicMT-50" transform="translate(918.857422 0)"/>
     <use xlink:href="#Arial-ItalicMT-65" transform="translate(985.556641 0)"/>
     <use xlink:href="#Arial-ItalicMT-72" transform="translate(1041.171875 0)"/>
     <use xlink:href="#Arial-ItalicMT-73" transform="translate(1074.472656 0)"/>
     <use xlink:href="#Arial-ItalicMT-70" transform="translate(1124.472656 0)"/>
     <use xlink:href="#Arial-ItalicMT-65" transform="translate(1180.087891 0)"/>
     <use xlink:href="#Arial-ItalicMT-63" transform="translate(1235.703125 0)"/>
     <use xlink:href="#Arial-ItalicMT-74" transform="translate(1285.703125 0)"/>
     <use xlink:href="#Arial-ItalicMT-69" transform="translate(1313.486328 0)"/>
     <use xlink:href="#Arial-ItalicMT-76" transform="translate(1335.703125 0)"/>
     <use xlink:href="#Arial-ItalicMT-65" transform="translate(1385.703125 0)"/>
     <use xlink:href="#Arial-ItalicMT-73" transform="translate(1441.318359 0)"/>
    </g>
   </g>
   <g id="text_3">
    <!-- 67% -->
    <g style="fill: #ffffff" transform="translate(153.82317 269.758125) scale(0.28 -0.28)">
     <defs>
      <path id="Arial-BoldMT-36" d="M 3247 3459 
L 2397 3366 
Q 2366 3628 2234 3753 
Q 2103 3878 1894 3878 
Q 1616 3878 1423 3628 
Q 1231 3378 1181 2588 
Q 1509 2975 1997 2975 
Q 2547 2975 2939 2556 
Q 3331 2138 3331 1475 
Q 3331 772 2918 347 
Q 2506 -78 1859 -78 
Q 1166 -78 719 461 
Q 272 1000 272 2228 
Q 272 3488 737 4044 
Q 1203 4600 1947 4600 
Q 2469 4600 2811 4308 
Q 3153 4016 3247 3459 
z
M 1256 1544 
Q 1256 1116 1453 883 
Q 1650 650 1903 650 
Q 2147 650 2309 840 
Q 2472 1031 2472 1466 
Q 2472 1913 2297 2120 
Q 2122 2328 1859 2328 
Q 1606 2328 1431 2129 
Q 1256 1931 1256 1544 
z
" transform="scale(0.015625)"/>
      <path id="Arial-BoldMT-37" d="M 272 3703 
L 272 4519 
L 3275 4519 
L 3275 3881 
Q 2903 3516 2518 2831 
Q 2134 2147 1932 1376 
Q 1731 606 1734 0 
L 888 0 
Q 909 950 1279 1937 
Q 1650 2925 2269 3703 
L 272 3703 
z
" transform="scale(0.015625)"/>
      <path id="Arial-BoldMT-25" d="M 278 3450 
Q 278 4066 548 4362 
Q 819 4659 1281 4659 
Q 1759 4659 2029 4364 
Q 2300 4069 2300 3450 
Q 2300 2834 2029 2537 
Q 1759 2241 1297 2241 
Q 819 2241 548 2536 
Q 278 2831 278 3450 
z
M 963 3456 
Q 963 3009 1066 2856 
Q 1144 2744 1281 2744 
Q 1422 2744 1500 2856 
Q 1600 3009 1600 3456 
Q 1600 3903 1500 4053 
Q 1422 4169 1281 4169 
Q 1144 4169 1066 4056 
Q 963 3903 963 3456 
z
M 1950 -175 
L 1300 -175 
L 3741 4659 
L 4372 4659 
L 1950 -175 
z
M 3369 1028 
Q 3369 1644 3639 1941 
Q 3909 2238 4378 2238 
Q 4850 2238 5120 1941 
Q 5391 1644 5391 1028 
Q 5391 409 5120 112 
Q 4850 -184 4388 -184 
Q 3909 -184 3639 112 
Q 3369 409 3369 1028 
z
M 4053 1031 
Q 4053 584 4156 434 
Q 4234 319 4372 319 
Q 4513 319 4588 431 
Q 4691 584 4691 1031 
Q 4691 1478 4591 1631 
Q 4513 1744 4372 1744 
Q 4231 1744 4156 1631 
Q 4053 1478 4053 1031 
z
" transform="scale(0.015625)"/>
     </defs>
     <use xlink:href="#Arial-BoldMT-36"/>
     <use xlink:href="#Arial-BoldMT-37" transform="translate(55.615234 0)"/>
     <use xlink:href="#Arial-BoldMT-25" transform="translate(111.230469 0)"/>
    </g>
   </g>
   <g id="text_4">
    <!-- Token -->
    <g style="fill: #ffffff" transform="translate(165.835982 313.861219) scale(0.12 -0.12)">
     <defs>
      <path id="ArialMT-54" d="M 1659 0 
L 1659 4041 
L 150 4041 
L 150 4581 
L 3781 4581 
L 3781 4041 
L 2266 4041 
L 2266 0 
L 1659 0 
z
" transform="scale(0.015625)"/>
      <path id="ArialMT-6f" d="M 213 1659 
Q 213 2581 725 3025 
Q 1153 3394 1769 3394 
Q 2453 3394 2887 2945 
Q 3322 2497 3322 1706 
Q 3322 1066 3130 698 
Q 2938 331 2570 128 
Q 2203 -75 1769 -75 
Q 1072 -75 642 372 
Q 213 819 213 1659 
z
M 791 1659 
Q 791 1022 1069 705 
Q 1347 388 1769 388 
Q 2188 388 2466 706 
Q 2744 1025 2744 1678 
Q 2744 2294 2464 2611 
Q 2184 2928 1769 2928 
Q 1347 2928 1069 2612 
Q 791 2297 791 1659 
z
" transform="scale(0.015625)"/>
      <path id="ArialMT-6b" d="M 425 0 
L 425 4581 
L 988 4581 
L 988 1969 
L 2319 3319 
L 3047 3319 
L 1778 2088 
L 3175 0 
L 2481 0 
L 1384 1697 
L 988 1316 
L 988 0 
L 425 0 
z
" transform="scale(0.015625)"/>
      <path id="ArialMT-65" d="M 2694 1069 
L 3275 997 
Q 3138 488 2766 206 
Q 2394 -75 1816 -75 
Q 1088 -75 661 373 
Q 234 822 234 1631 
Q 234 2469 665 2931 
Q 1097 3394 1784 3394 
Q 2450 3394 2872 2941 
Q 3294 2488 3294 1666 
Q 3294 1616 3291 1516 
L 816 1516 
Q 847 969 1125 678 
Q 1403 388 1819 388 
Q 2128 388 2347 550 
Q 2566 713 2694 1069 
z
M 847 1978 
L 2700 1978 
Q 2663 2397 2488 2606 
Q 2219 2931 1791 2931 
Q 1403 2931 1139 2672 
Q 875 2413 847 1978 
z
" transform="scale(0.015625)"/>
      <path id="ArialMT-6e" d="M 422 0 
L 422 3319 
L 928 3319 
L 928 2847 
Q 1294 3394 1984 3394 
Q 2284 3394 2536 3286 
Q 2788 3178 2913 3003 
Q 3038 2828 3088 2588 
Q 3119 2431 3119 2041 
L 3119 0 
L 2556 0 
L 2556 2019 
Q 2556 2363 2490 2533 
Q 2425 2703 2258 2804 
Q 2091 2906 1866 2906 
Q 1506 2906 1245 2678 
Q 984 2450 984 1813 
L 984 0 
L 422 0 
z
" transform="scale(0.015625)"/>
     </defs>
     <use xlink:href="#ArialMT-54"/>
     <use xlink:href="#ArialMT-6f" transform="translate(49.958984 0)"/>
     <use xlink:href="#ArialMT-6b" transform="translate(105.574219 0)"/>
     <use xlink:href="#ArialMT-65" transform="translate(155.574219 0)"/>
     <use xlink:href="#ArialMT-6e" transform="translate(211.189453 0)"/>
    </g>
    <!-- Savings -->
    <g style="fill: #ffffff" transform="translate(160.497857 327.602531) scale(0.12 -0.12)">
     <defs>
      <path id="ArialMT-53" d="M 288 1472 
L 859 1522 
Q 900 1178 1048 958 
Q 1197 738 1509 602 
Q 1822 466 2213 466 
Q 2559 466 2825 569 
Q 3091 672 3220 851 
Q 3350 1031 3350 1244 
Q 3350 1459 3225 1620 
Q 3100 1781 2813 1891 
Q 2628 1963 1997 2114 
Q 1366 2266 1113 2400 
Q 784 2572 623 2826 
Q 463 3081 463 3397 
Q 463 3744 659 4045 
Q 856 4347 1234 4503 
Q 1613 4659 2075 4659 
Q 2584 4659 2973 4495 
Q 3363 4331 3572 4012 
Q 3781 3694 3797 3291 
L 3216 3247 
Q 3169 3681 2898 3903 
Q 2628 4125 2100 4125 
Q 1550 4125 1298 3923 
Q 1047 3722 1047 3438 
Q 1047 3191 1225 3031 
Q 1400 2872 2139 2705 
Q 2878 2538 3153 2413 
Q 3553 2228 3743 1945 
Q 3934 1663 3934 1294 
Q 3934 928 3725 604 
Q 3516 281 3123 101 
Q 2731 -78 2241 -78 
Q 1619 -78 1198 103 
Q 778 284 539 648 
Q 300 1013 288 1472 
z
" transform="scale(0.015625)"/>
      <path id="ArialMT-61" d="M 2588 409 
Q 2275 144 1986 34 
Q 1697 -75 1366 -75 
Q 819 -75 525 192 
Q 231 459 231 875 
Q 231 1119 342 1320 
Q 453 1522 633 1644 
Q 813 1766 1038 1828 
Q 1203 1872 1538 1913 
Q 2219 1994 2541 2106 
Q 2544 2222 2544 2253 
Q 2544 2597 2384 2738 
Q 2169 2928 1744 2928 
Q 1347 2928 1158 2789 
Q 969 2650 878 2297 
L 328 2372 
Q 403 2725 575 2942 
Q 747 3159 1072 3276 
Q 1397 3394 1825 3394 
Q 2250 3394 2515 3294 
Q 2781 3194 2906 3042 
Q 3031 2891 3081 2659 
Q 3109 2516 3109 2141 
L 3109 1391 
Q 3109 606 3145 398 
Q 3181 191 3288 0 
L 2700 0 
Q 2613 175 2588 409 
z
M 2541 1666 
Q 2234 1541 1622 1453 
Q 1275 1403 1131 1340 
Q 988 1278 909 1158 
Q 831 1038 831 891 
Q 831 666 1001 516 
Q 1172 366 1500 366 
Q 1825 366 2078 508 
Q 2331 650 2450 897 
Q 2541 1088 2541 1459 
L 2541 1666 
z
" transform="scale(0.015625)"/>
      <path id="ArialMT-76" d="M 1344 0 
L 81 3319 
L 675 3319 
L 1388 1331 
Q 1503 1009 1600 663 
Q 1675 925 1809 1294 
L 2547 3319 
L 3125 3319 
L 1869 0 
L 1344 0 
z
" transform="scale(0.015625)"/>
      <path id="ArialMT-69" d="M 425 3934 
L 425 4581 
L 988 4581 
L 988 3934 
L 425 3934 
z
M 425 0 
L 425 3319 
L 988 3319 
L 988 0 
L 425 0 
z
" transform="scale(0.015625)"/>
      <path id="ArialMT-67" d="M 319 -275 
L 866 -356 
Q 900 -609 1056 -725 
Q 1266 -881 1628 -881 
Q 2019 -881 2231 -725 
Q 2444 -569 2519 -288 
Q 2563 -116 2559 434 
Q 2191 0 1641 0 
Q 956 0 581 494 
Q 206 988 206 1678 
Q 206 2153 378 2554 
Q 550 2956 876 3175 
Q 1203 3394 1644 3394 
Q 2231 3394 2613 2919 
L 2613 3319 
L 3131 3319 
L 3131 450 
Q 3131 -325 2973 -648 
Q 2816 -972 2473 -1159 
Q 2131 -1347 1631 -1347 
Q 1038 -1347 672 -1080 
Q 306 -813 319 -275 
z
M 784 1719 
Q 784 1066 1043 766 
Q 1303 466 1694 466 
Q 2081 466 2343 764 
Q 2606 1063 2606 1700 
Q 2606 2309 2336 2618 
Q 2066 2928 1684 2928 
Q 1309 2928 1046 2623 
Q 784 2319 784 1719 
z
" transform="scale(0.015625)"/>
      <path id="ArialMT-73" d="M 197 991 
L 753 1078 
Q 800 744 1014 566 
Q 1228 388 1613 388 
Q 2000 388 2187 545 
Q 2375 703 2375 916 
Q 2375 1106 2209 1216 
Q 2094 1291 1634 1406 
Q 1016 1563 777 1677 
Q 538 1791 414 1992 
Q 291 2194 291 2438 
Q 291 2659 392 2848 
Q 494 3038 669 3163 
Q 800 3259 1026 3326 
Q 1253 3394 1513 3394 
Q 1903 3394 2198 3281 
Q 2494 3169 2634 2976 
Q 2775 2784 2828 2463 
L 2278 2388 
Q 2241 2644 2061 2787 
Q 1881 2931 1553 2931 
Q 1166 2931 1000 2803 
Q 834 2675 834 2503 
Q 834 2394 903 2306 
Q 972 2216 1119 2156 
Q 1203 2125 1616 2013 
Q 2213 1853 2448 1751 
Q 2684 1650 2818 1456 
Q 2953 1263 2953 975 
Q 2953 694 2789 445 
Q 2625 197 2315 61 
Q 2006 -75 1616 -75 
Q 969 -75 630 194 
Q 291 463 197 991 
z
" transform="scale(0.015625)"/>
     </defs>
     <use xlink:href="#ArialMT-53"/>
     <use xlink:href="#ArialMT-61" transform="translate(66.699219 0)"/>
     <use xlink:href="#ArialMT-76" transform="translate(122.314453 0)"/>
     <use xlink:href="#ArialMT-69" transform="translate(172.314453 0)"/>
     <use xlink:href="#ArialMT-6e" transform="translate(194.53125 0)"/>
     <use xlink:href="#ArialMT-67" transform="translate(250.146484 0)"/>
     <use xlink:href="#ArialMT-73" transform="translate(305.761719 0)"/>
    </g>
   </g>
   <g id="text_5">
    <!-- 3× -->
    <g style="fill: #ffffff" transform="translate(480.237812 269.758125) scale(0.28 -0.28)">
     <defs>
      <path id="Arial-BoldMT-33" d="M 241 1216 
L 1091 1319 
Q 1131 994 1309 822 
Q 1488 650 1741 650 
Q 2013 650 2198 856 
Q 2384 1063 2384 1413 
Q 2384 1744 2206 1937 
Q 2028 2131 1772 2131 
Q 1603 2131 1369 2066 
L 1466 2781 
Q 1822 2772 2009 2936 
Q 2197 3100 2197 3372 
Q 2197 3603 2059 3740 
Q 1922 3878 1694 3878 
Q 1469 3878 1309 3722 
Q 1150 3566 1116 3266 
L 306 3403 
Q 391 3819 561 4067 
Q 731 4316 1036 4458 
Q 1341 4600 1719 4600 
Q 2366 4600 2756 4188 
Q 3078 3850 3078 3425 
Q 3078 2822 2419 2463 
Q 2813 2378 3048 2084 
Q 3284 1791 3284 1375 
Q 3284 772 2843 347 
Q 2403 -78 1747 -78 
Q 1125 -78 715 280 
Q 306 638 241 1216 
z
" transform="scale(0.015625)"/>
      <path id="Arial-BoldMT-d7" d="M 347 1313 
L 1291 2256 
L 341 3203 
L 922 3784 
L 1872 2838 
L 2816 3781 
L 3381 3213 
L 2438 2269 
L 3391 1316 
L 2809 734 
L 1856 1688 
L 913 744 
L 347 1313 
z
" transform="scale(0.015625)"/>
     </defs>
     <use xlink:href="#Arial-BoldMT-33"/>
     <use xlink:href="#Arial-BoldMT-d7" transform="translate(55.615234 0)"/>
    </g>
   </g>
   <g id="text_6">
    <!-- Reliability -->
    <g style="fill: #ffffff" transform="translate(470.524687 313.956281) scale(0.12 -0.12)">
     <defs>
      <path id="ArialMT-52" d="M 503 0 
L 503 4581 
L 2534 4581 
Q 3147 4581 3465 4457 
Q 3784 4334 3975 4021 
Q 4166 3709 4166 3331 
Q 4166 2844 3850 2509 
Q 3534 2175 2875 2084 
Q 3116 1969 3241 1856 
Q 3506 1613 3744 1247 
L 4541 0 
L 3778 0 
L 3172 953 
Q 2906 1366 2734 1584 
Q 2563 1803 2427 1890 
Q 2291 1978 2150 2013 
Q 2047 2034 1813 2034 
L 1109 2034 
L 1109 0 
L 503 0 
z
M 1109 2559 
L 2413 2559 
Q 2828 2559 3062 2645 
Q 3297 2731 3419 2920 
Q 3541 3109 3541 3331 
Q 3541 3656 3305 3865 
Q 3069 4075 2559 4075 
L 1109 4075 
L 1109 2559 
z
" transform="scale(0.015625)"/>
      <path id="ArialMT-6c" d="M 409 0 
L 409 4581 
L 972 4581 
L 972 0 
L 409 0 
z
" transform="scale(0.015625)"/>
      <path id="ArialMT-62" d="M 941 0 
L 419 0 
L 419 4581 
L 981 4581 
L 981 2947 
Q 1338 3394 1891 3394 
Q 2197 3394 2470 3270 
Q 2744 3147 2920 2923 
Q 3097 2700 3197 2384 
Q 3297 2069 3297 1709 
Q 3297 856 2875 390 
Q 2453 -75 1863 -75 
Q 1275 -75 941 416 
L 941 0 
z
M 934 1684 
Q 934 1088 1097 822 
Q 1363 388 1816 388 
Q 2184 388 2453 708 
Q 2722 1028 2722 1663 
Q 2722 2313 2464 2622 
Q 2206 2931 1841 2931 
Q 1472 2931 1203 2611 
Q 934 2291 934 1684 
z
" transform="scale(0.015625)"/>
      <path id="ArialMT-74" d="M 1650 503 
L 1731 6 
Q 1494 -44 1306 -44 
Q 1000 -44 831 53 
Q 663 150 594 308 
Q 525 466 525 972 
L 525 2881 
L 113 2881 
L 113 3319 
L 525 3319 
L 525 4141 
L 1084 4478 
L 1084 3319 
L 1650 3319 
L 1650 2881 
L 1084 2881 
L 1084 941 
Q 1084 700 1114 631 
Q 1144 563 1211 522 
Q 1278 481 1403 481 
Q 1497 481 1650 503 
z
" transform="scale(0.015625)"/>
      <path id="ArialMT-79" d="M 397 -1278 
L 334 -750 
Q 519 -800 656 -800 
Q 844 -800 956 -737 
Q 1069 -675 1141 -563 
Q 1194 -478 1313 -144 
Q 1328 -97 1363 -6 
L 103 3319 
L 709 3319 
L 1400 1397 
Q 1534 1031 1641 628 
Q 1738 1016 1872 1384 
L 2581 3319 
L 3144 3319 
L 1881 -56 
Q 1678 -603 1566 -809 
Q 1416 -1088 1222 -1217 
Q 1028 -1347 759 -1347 
Q 597 -1347 397 -1278 
z
" transform="scale(0.015625)"/>
     </defs>
     <use xlink:href="#ArialMT-52"/>
     <use xlink:href="#ArialMT-65" transform="translate(72.216797 0)"/>
     <use xlink:href="#ArialMT-6c" transform="translate(127.832031 0)"/>
     <use xlink:href="#ArialMT-69" transform="translate(150.048828 0)"/>
     <use xlink:href="#ArialMT-61" transform="translate(172.265625 0)"/>
     <use xlink:href="#ArialMT-62" transform="translate(227.880859 0)"/>
     <use xlink:href="#ArialMT-69" transform="translate(283.496094 0)"/>
     <use xlink:href="#ArialMT-6c" transform="translate(305.712891 0)"/>
     <use xlink:href="#ArialMT-69" transform="translate(327.929688 0)"/>
     <use xlink:href="#ArialMT-74" transform="translate(350.146484 0)"/>
     <use xlink:href="#ArialMT-79" transform="translate(377.929688 0)"/>
    </g>
    <!-- Improvement -->
    <g style="fill: #ffffff" transform="translate(461.19 327.648094) scale(0.12 -0.12)">
     <defs>
      <path id="ArialMT-49" d="M 597 0 
L 597 4581 
L 1203 4581 
L 1203 0 
L 597 0 
z
" transform="scale(0.015625)"/>
      <path id="ArialMT-6d" d="M 422 0 
L 422 3319 
L 925 3319 
L 925 2853 
Q 1081 3097 1340 3245 
Q 1600 3394 1931 3394 
Q 2300 3394 2536 3241 
Q 2772 3088 2869 2813 
Q 3263 3394 3894 3394 
Q 4388 3394 4653 3120 
Q 4919 2847 4919 2278 
L 4919 0 
L 4359 0 
L 4359 2091 
Q 4359 2428 4304 2576 
Q 4250 2725 4106 2815 
Q 3963 2906 3769 2906 
Q 3419 2906 3187 2673 
Q 2956 2441 2956 1928 
L 2956 0 
L 2394 0 
L 2394 2156 
Q 2394 2531 2256 2718 
Q 2119 2906 1806 2906 
Q 1569 2906 1367 2781 
Q 1166 2656 1075 2415 
Q 984 2175 984 1722 
L 984 0 
L 422 0 
z
" transform="scale(0.015625)"/>
      <path id="ArialMT-70" d="M 422 -1272 
L 422 3319 
L 934 3319 
L 934 2888 
Q 1116 3141 1344 3267 
Q 1572 3394 1897 3394 
Q 2322 3394 2647 3175 
Q 2972 2956 3137 2557 
Q 3303 2159 3303 1684 
Q 3303 1175 3120 767 
Q 2938 359 2589 142 
Q 2241 -75 1856 -75 
Q 1575 -75 1351 44 
Q 1128 163 984 344 
L 984 -1272 
L 422 -1272 
z
M 931 1641 
Q 931 1000 1190 694 
Q 1450 388 1819 388 
Q 2194 388 2461 705 
Q 2728 1022 2728 1688 
Q 2728 2322 2467 2637 
Q 2206 2953 1844 2953 
Q 1484 2953 1207 2617 
Q 931 2281 931 1641 
z
" transform="scale(0.015625)"/>
      <path id="ArialMT-72" d="M 416 0 
L 416 3319 
L 922 3319 
L 922 2816 
Q 1116 3169 1280 3281 
Q 1444 3394 1641 3394 
Q 1925 3394 2219 3213 
L 2025 2691 
Q 1819 2813 1613 2813 
Q 1428 2813 1281 2702 
Q 1134 2591 1072 2394 
Q 978 2094 978 1738 
L 978 0 
L 416 0 
z
" transform="scale(0.015625)"/>
     </defs>
     <use xlink:href="#ArialMT-49"/>
     <use xlink:href="#ArialMT-6d" transform="translate(27.783203 0)"/>
     <use xlink:href="#ArialMT-70" transform="translate(111.083984 0)"/>
     <use xlink:href="#ArialMT-72" transform="translate(166.699219 0)"/>
     <use xlink:href="#ArialMT-6f" transform="translate(200 0)"/>
     <use xlink:href="#ArialMT-76" transform="translate(255.615234 0)"/>
     <use xlink:href="#ArialMT-65" transform="translate(305.615234 0)"/>
     <use xlink:href="#ArialMT-6d" transform="translate(361.230469 0)"/>
     <use xlink:href="#ArialMT-65" transform="translate(444.53125 0)"/>
     <use xlink:href="#ArialMT-6e" transform="translate(500.146484 0)"/>
     <use xlink:href="#ArialMT-74" transform="translate(555.761719 0)"/>
    </g>
   </g>
   <g id="text_7">
    <!-- Zero -->
    <g style="fill: #ffffff" transform="translate(780.220893 269.758125) scale(0.28 -0.28)">
     <defs>
      <path id="Arial-BoldMT-5a" d="M 69 0 
L 69 834 
L 2475 3806 
L 341 3806 
L 341 4581 
L 3694 4581 
L 3694 3863 
L 1184 772 
L 3791 772 
L 3791 0 
L 69 0 
z
" transform="scale(0.015625)"/>
     </defs>
     <use xlink:href="#Arial-BoldMT-5a"/>
     <use xlink:href="#Arial-BoldMT-65" transform="translate(61.083984 0)"/>
     <use xlink:href="#Arial-BoldMT-72" transform="translate(116.699219 0)"/>
     <use xlink:href="#Arial-BoldMT-6f" transform="translate(155.615234 0)"/>
    </g>
   </g>
   <g id="text_8">
    <!-- Migration -->
    <g style="fill: #ffffff" transform="translate(785.882143 313.956281) scale(0.12 -0.12)">
     <defs>
      <path id="ArialMT-4d" d="M 475 0 
L 475 4581 
L 1388 4581 
L 2472 1338 
Q 2622 884 2691 659 
Q 2769 909 2934 1394 
L 4031 4581 
L 4847 4581 
L 4847 0 
L 4263 0 
L 4263 3834 
L 2931 0 
L 2384 0 
L 1059 3900 
L 1059 0 
L 475 0 
z
" transform="scale(0.015625)"/>
     </defs>
     <use xlink:href="#ArialMT-4d"/>
     <use xlink:href="#ArialMT-69" transform="translate(83.300781 0)"/>
     <use xlink:href="#ArialMT-67" transform="translate(105.517578 0)"/>
     <use xlink:href="#ArialMT-72" transform="translate(161.132812 0)"/>
     <use xlink:href="#ArialMT-61" transform="translate(194.433594 0)"/>
     <use xlink:href="#ArialMT-74" transform="translate(250.048828 0)"/>
     <use xlink:href="#ArialMT-69" transform="translate(277.832031 0)"/>
     <use xlink:href="#ArialMT-6f" transform="translate(300.048828 0)"/>
     <use xlink:href="#ArialMT-6e" transform="translate(355.664062 0)"/>
    </g>
    <!-- Required -->
    <g style="fill: #ffffff" transform="translate(786.210268 327.648094) scale(0.12 -0.12)">
     <defs>
      <path id="ArialMT-71" d="M 2538 -1272 
L 2538 353 
Q 2406 169 2170 47 
Q 1934 -75 1669 -75 
Q 1078 -75 651 397 
Q 225 869 225 1691 
Q 225 2191 398 2587 
Q 572 2984 901 3189 
Q 1231 3394 1625 3394 
Q 2241 3394 2594 2875 
L 2594 3319 
L 3100 3319 
L 3100 -1272 
L 2538 -1272 
z
M 803 1669 
Q 803 1028 1072 708 
Q 1341 388 1716 388 
Q 2075 388 2334 692 
Q 2594 997 2594 1619 
Q 2594 2281 2320 2615 
Q 2047 2950 1678 2950 
Q 1313 2950 1058 2639 
Q 803 2328 803 1669 
z
" transform="scale(0.015625)"/>
      <path id="ArialMT-75" d="M 2597 0 
L 2597 488 
Q 2209 -75 1544 -75 
Q 1250 -75 995 37 
Q 741 150 617 320 
Q 494 491 444 738 
Q 409 903 409 1263 
L 409 3319 
L 972 3319 
L 972 1478 
Q 972 1038 1006 884 
Q 1059 663 1231 536 
Q 1403 409 1656 409 
Q 1909 409 2131 539 
Q 2353 669 2445 892 
Q 2538 1116 2538 1541 
L 2538 3319 
L 3100 3319 
L 3100 0 
L 2597 0 
z
" transform="scale(0.015625)"/>
      <path id="ArialMT-64" d="M 2575 0 
L 2575 419 
Q 2259 -75 1647 -75 
Q 1250 -75 917 144 
Q 584 363 401 755 
Q 219 1147 219 1656 
Q 219 2153 384 2558 
Q 550 2963 881 3178 
Q 1213 3394 1622 3394 
Q 1922 3394 2156 3267 
Q 2391 3141 2538 2938 
L 2538 4581 
L 3097 4581 
L 3097 0 
L 2575 0 
z
M 797 1656 
Q 797 1019 1065 703 
Q 1334 388 1700 388 
Q 2069 388 2326 689 
Q 2584 991 2584 1609 
Q 2584 2291 2321 2609 
Q 2059 2928 1675 2928 
Q 1300 2928 1048 2622 
Q 797 2316 797 1656 
z
" transform="scale(0.015625)"/>
     </defs>
     <use xlink:href="#ArialMT-52"/>
     <use xlink:href="#ArialMT-65" transform="translate(72.216797 0)"/>
     <use xlink:href="#ArialMT-71" transform="translate(127.832031 0)"/>
     <use xlink:href="#ArialMT-75" transform="translate(183.447266 0)"/>
     <use xlink:href="#ArialMT-69" transform="translate(239.0625 0)"/>
     <use xlink:href="#ArialMT-72" transform="translate(261.279297 0)"/>
     <use xlink:href="#ArialMT-65" transform="translate(294.580078 0)"/>
     <use xlink:href="#ArialMT-64" transform="translate(350.195312 0)"/>
    </g>
   </g>
   <g id="text_9">
    <!-- AI Engineer -->
    <g style="fill: #262626" transform="translate(137.391607 466.6425) scale(0.16 -0.16)">
     <defs>
      <path id="Arial-BoldMT-41" d="M 4597 0 
L 3591 0 
L 3191 1041 
L 1359 1041 
L 981 0 
L 0 0 
L 1784 4581 
L 2763 4581 
L 4597 0 
z
M 2894 1813 
L 2263 3513 
L 1644 1813 
L 2894 1813 
z
" transform="scale(0.015625)"/>
      <path id="Arial-BoldMT-49" d="M 438 0 
L 438 4581 
L 1363 4581 
L 1363 0 
L 438 0 
z
" transform="scale(0.015625)"/>
      <path id="Arial-BoldMT-45" d="M 466 0 
L 466 4581 
L 3863 4581 
L 3863 3806 
L 1391 3806 
L 1391 2791 
L 3691 2791 
L 3691 2019 
L 1391 2019 
L 1391 772 
L 3950 772 
L 3950 0 
L 466 0 
z
" transform="scale(0.015625)"/>
      <path id="Arial-BoldMT-67" d="M 378 -219 
L 1381 -341 
Q 1406 -516 1497 -581 
Q 1622 -675 1891 -675 
Q 2234 -675 2406 -572 
Q 2522 -503 2581 -350 
Q 2622 -241 2622 53 
L 2622 538 
Q 2228 0 1628 0 
Q 959 0 569 566 
Q 263 1013 263 1678 
Q 263 2513 664 2953 
Q 1066 3394 1663 3394 
Q 2278 3394 2678 2853 
L 2678 3319 
L 3500 3319 
L 3500 341 
Q 3500 -247 3403 -537 
Q 3306 -828 3131 -993 
Q 2956 -1159 2664 -1253 
Q 2372 -1347 1925 -1347 
Q 1081 -1347 728 -1058 
Q 375 -769 375 -325 
Q 375 -281 378 -219 
z
M 1163 1728 
Q 1163 1200 1367 954 
Q 1572 709 1872 709 
Q 2194 709 2416 961 
Q 2638 1213 2638 1706 
Q 2638 2222 2425 2472 
Q 2213 2722 1888 2722 
Q 1572 2722 1367 2476 
Q 1163 2231 1163 1728 
z
" transform="scale(0.015625)"/>
     </defs>
     <use xlink:href="#Arial-BoldMT-41"/>
     <use xlink:href="#Arial-BoldMT-49" transform="translate(72.216797 0)"/>
     <use xlink:href="#Arial-BoldMT-20" transform="translate(100 0)"/>
     <use xlink:href="#Arial-BoldMT-45" transform="translate(127.783203 0)"/>
     <use xlink:href="#Arial-BoldMT-6e" transform="translate(194.482422 0)"/>
     <use xlink:href="#Arial-BoldMT-67" transform="translate(255.566406 0)"/>
     <use xlink:href="#Arial-BoldMT-69" transform="translate(316.650391 0)"/>
     <use xlink:href="#Arial-BoldMT-6e" transform="translate(344.433594 0)"/>
     <use xlink:href="#Arial-BoldMT-65" transform="translate(405.517578 0)"/>
     <use xlink:href="#Arial-BoldMT-65" transform="translate(461.132812 0)"/>
     <use xlink:href="#Arial-BoldMT-72" transform="translate(516.748047 0)"/>
    </g>
   </g>
   <g id="text_10">
    <!-- Cost reduction -->
    <g style="fill: #262626" transform="translate(139.935123 551.912531) scale(0.13 -0.13)">
     <defs>
      <path id="ArialMT-43" d="M 3763 1606 
L 4369 1453 
Q 4178 706 3683 314 
Q 3188 -78 2472 -78 
Q 1731 -78 1267 223 
Q 803 525 561 1097 
Q 319 1669 319 2325 
Q 319 3041 592 3573 
Q 866 4106 1370 4382 
Q 1875 4659 2481 4659 
Q 3169 4659 3637 4309 
Q 4106 3959 4291 3325 
L 3694 3184 
Q 3534 3684 3231 3912 
Q 2928 4141 2469 4141 
Q 1941 4141 1586 3887 
Q 1231 3634 1087 3207 
Q 944 2781 944 2328 
Q 944 1744 1114 1308 
Q 1284 872 1643 656 
Q 2003 441 2422 441 
Q 2931 441 3284 734 
Q 3638 1028 3763 1606 
z
" transform="scale(0.015625)"/>
      <path id="ArialMT-20" transform="scale(0.015625)"/>
      <path id="ArialMT-63" d="M 2588 1216 
L 3141 1144 
Q 3050 572 2676 248 
Q 2303 -75 1759 -75 
Q 1078 -75 664 370 
Q 250 816 250 1647 
Q 250 2184 428 2587 
Q 606 2991 970 3192 
Q 1334 3394 1763 3394 
Q 2303 3394 2647 3120 
Q 2991 2847 3088 2344 
L 2541 2259 
Q 2463 2594 2264 2762 
Q 2066 2931 1784 2931 
Q 1359 2931 1093 2626 
Q 828 2322 828 1663 
Q 828 994 1084 691 
Q 1341 388 1753 388 
Q 2084 388 2306 591 
Q 2528 794 2588 1216 
z
" transform="scale(0.015625)"/>
     </defs>
     <use xlink:href="#ArialMT-43"/>
     <use xlink:href="#ArialMT-6f" transform="translate(72.216797 0)"/>
     <use xlink:href="#ArialMT-73" transform="translate(127.832031 0)"/>
     <use xlink:href="#ArialMT-74" transform="translate(177.832031 0)"/>
     <use xlink:href="#ArialMT-20" transform="translate(205.615234 0)"/>
     <use xlink:href="#ArialMT-72" transform="translate(233.398438 0)"/>
     <use xlink:href="#ArialMT-65" transform="translate(266.699219 0)"/>
     <use xlink:href="#ArialMT-64" transform="translate(322.314453 0)"/>
     <use xlink:href="#ArialMT-75" transform="translate(377.929688 0)"/>
     <use xlink:href="#ArialMT-63" transform="translate(433.544922 0)"/>
     <use xlink:href="#ArialMT-74" transform="translate(483.544922 0)"/>
     <use xlink:href="#ArialMT-69" transform="translate(511.328125 0)"/>
     <use xlink:href="#ArialMT-6f" transform="translate(533.544922 0)"/>
     <use xlink:href="#ArialMT-6e" transform="translate(589.160156 0)"/>
    </g>
    <!-- More context capacity -->
    <g style="fill: #262626" transform="translate(118.624263 569.384531) scale(0.13 -0.13)">
     <defs>
      <path id="ArialMT-78" d="M 47 0 
L 1259 1725 
L 138 3319 
L 841 3319 
L 1350 2541 
Q 1494 2319 1581 2169 
Q 1719 2375 1834 2534 
L 2394 3319 
L 3066 3319 
L 1919 1756 
L 3153 0 
L 2463 0 
L 1781 1031 
L 1600 1309 
L 728 0 
L 47 0 
z
" transform="scale(0.015625)"/>
     </defs>
     <use xlink:href="#ArialMT-4d"/>
     <use xlink:href="#ArialMT-6f" transform="translate(83.300781 0)"/>
     <use xlink:href="#ArialMT-72" transform="translate(138.916016 0)"/>
     <use xlink:href="#ArialMT-65" transform="translate(172.216797 0)"/>
     <use xlink:href="#ArialMT-20" transform="translate(227.832031 0)"/>
     <use xlink:href="#ArialMT-63" transform="translate(255.615234 0)"/>
     <use xlink:href="#ArialMT-6f" transform="translate(305.615234 0)"/>
     <use xlink:href="#ArialMT-6e" transform="translate(361.230469 0)"/>
     <use xlink:href="#ArialMT-74" transform="translate(416.845703 0)"/>
     <use xlink:href="#ArialMT-65" transform="translate(444.628906 0)"/>
     <use xlink:href="#ArialMT-78" transform="translate(500.244141 0)"/>
     <use xlink:href="#ArialMT-74" transform="translate(550.244141 0)"/>
     <use xlink:href="#ArialMT-20" transform="translate(578.027344 0)"/>
     <use xlink:href="#ArialMT-63" transform="translate(605.810547 0)"/>
     <use xlink:href="#ArialMT-61" transform="translate(655.810547 0)"/>
     <use xlink:href="#ArialMT-70" transform="translate(711.425781 0)"/>
     <use xlink:href="#ArialMT-61" transform="translate(767.041016 0)"/>
     <use xlink:href="#ArialMT-63" transform="translate(822.65625 0)"/>
     <use xlink:href="#ArialMT-69" transform="translate(872.65625 0)"/>
     <use xlink:href="#ArialMT-74" transform="translate(894.873047 0)"/>
     <use xlink:href="#ArialMT-79" transform="translate(922.65625 0)"/>
    </g>
    <!-- Faster inference -->
    <g style="fill: #262626" transform="translate(134.880357 587.008875) scale(0.13 -0.13)">
     <defs>
      <path id="ArialMT-46" d="M 525 0 
L 525 4581 
L 3616 4581 
L 3616 4041 
L 1131 4041 
L 1131 2622 
L 3281 2622 
L 3281 2081 
L 1131 2081 
L 1131 0 
L 525 0 
z
" transform="scale(0.015625)"/>
      <path id="ArialMT-66" d="M 556 0 
L 556 2881 
L 59 2881 
L 59 3319 
L 556 3319 
L 556 3672 
Q 556 4006 616 4169 
Q 697 4388 901 4523 
Q 1106 4659 1475 4659 
Q 1713 4659 2000 4603 
L 1916 4113 
Q 1741 4144 1584 4144 
Q 1328 4144 1222 4034 
Q 1116 3925 1116 3625 
L 1116 3319 
L 1763 3319 
L 1763 2881 
L 1116 2881 
L 1116 0 
L 556 0 
z
" transform="scale(0.015625)"/>
     </defs>
     <use xlink:href="#ArialMT-46"/>
     <use xlink:href="#ArialMT-61" transform="translate(61.083984 0)"/>
     <use xlink:href="#ArialMT-73" transform="translate(116.699219 0)"/>
     <use xlink:href="#ArialMT-74" transform="translate(166.699219 0)"/>
     <use xlink:href="#ArialMT-65" transform="translate(194.482422 0)"/>
     <use xlink:href="#ArialMT-72" transform="translate(250.097656 0)"/>
     <use xlink:href="#ArialMT-20" transform="translate(283.398438 0)"/>
     <use xlink:href="#ArialMT-69" transform="translate(311.181641 0)"/>
     <use xlink:href="#ArialMT-6e" transform="translate(333.398438 0)"/>
     <use xlink:href="#ArialMT-66" transform="translate(389.013672 0)"/>
     <use xlink:href="#ArialMT-65" transform="translate(416.796875 0)"/>
     <use xlink:href="#ArialMT-72" transform="translate(472.412109 0)"/>
     <use xlink:href="#ArialMT-65" transform="translate(505.712891 0)"/>
     <use xlink:href="#ArialMT-6e" transform="translate(561.328125 0)"/>
     <use xlink:href="#ArialMT-63" transform="translate(616.943359 0)"/>
     <use xlink:href="#ArialMT-65" transform="translate(666.943359 0)"/>
    </g>
   </g>
   <g id="text_11">
    <!-- Agent Developer -->
    <g style="fill: #262626" transform="translate(432.63375 466.6425) scale(0.16 -0.16)">
     <defs>
      <path id="Arial-BoldMT-44" d="M 463 4581 
L 2153 4581 
Q 2725 4581 3025 4494 
Q 3428 4375 3715 4072 
Q 4003 3769 4153 3330 
Q 4303 2891 4303 2247 
Q 4303 1681 4163 1272 
Q 3991 772 3672 463 
Q 3431 228 3022 97 
Q 2716 0 2203 0 
L 463 0 
L 463 4581 
z
M 1388 3806 
L 1388 772 
L 2078 772 
Q 2466 772 2638 816 
Q 2863 872 3011 1006 
Q 3159 1141 3253 1448 
Q 3347 1756 3347 2288 
Q 3347 2819 3253 3103 
Q 3159 3388 2990 3547 
Q 2822 3706 2563 3763 
Q 2369 3806 1803 3806 
L 1388 3806 
z
" transform="scale(0.015625)"/>
      <path id="Arial-BoldMT-76" d="M 1372 0 
L 34 3319 
L 956 3319 
L 1581 1625 
L 1763 1059 
Q 1834 1275 1853 1344 
Q 1897 1484 1947 1625 
L 2578 3319 
L 3481 3319 
L 2163 0 
L 1372 0 
z
" transform="scale(0.015625)"/>
      <path id="Arial-BoldMT-6c" d="M 459 0 
L 459 4581 
L 1338 4581 
L 1338 0 
L 459 0 
z
" transform="scale(0.015625)"/>
      <path id="Arial-BoldMT-70" d="M 434 3319 
L 1253 3319 
L 1253 2831 
Q 1413 3081 1684 3237 
Q 1956 3394 2288 3394 
Q 2866 3394 3269 2941 
Q 3672 2488 3672 1678 
Q 3672 847 3265 386 
Q 2859 -75 2281 -75 
Q 2006 -75 1782 34 
Q 1559 144 1313 409 
L 1313 -1263 
L 434 -1263 
L 434 3319 
z
M 1303 1716 
Q 1303 1156 1525 889 
Q 1747 622 2066 622 
Q 2372 622 2575 867 
Q 2778 1113 2778 1672 
Q 2778 2194 2568 2447 
Q 2359 2700 2050 2700 
Q 1728 2700 1515 2451 
Q 1303 2203 1303 1716 
z
" transform="scale(0.015625)"/>
     </defs>
     <use xlink:href="#Arial-BoldMT-41"/>
     <use xlink:href="#Arial-BoldMT-67" transform="translate(72.216797 0)"/>
     <use xlink:href="#Arial-BoldMT-65" transform="translate(133.300781 0)"/>
     <use xlink:href="#Arial-BoldMT-6e" transform="translate(188.916016 0)"/>
     <use xlink:href="#Arial-BoldMT-74" transform="translate(250 0)"/>
     <use xlink:href="#Arial-BoldMT-20" transform="translate(283.300781 0)"/>
     <use xlink:href="#Arial-BoldMT-44" transform="translate(311.083984 0)"/>
     <use xlink:href="#Arial-BoldMT-65" transform="translate(383.300781 0)"/>
     <use xlink:href="#Arial-BoldMT-76" transform="translate(438.916016 0)"/>
     <use xlink:href="#Arial-BoldMT-65" transform="translate(494.53125 0)"/>
     <use xlink:href="#Arial-BoldMT-6c" transform="translate(550.146484 0)"/>
     <use xlink:href="#Arial-BoldMT-6f" transform="translate(577.929688 0)"/>
     <use xlink:href="#Arial-BoldMT-70" transform="translate(639.013672 0)"/>
     <use xlink:href="#Arial-BoldMT-65" transform="translate(700.097656 0)"/>
     <use xlink:href="#Arial-BoldMT-72" transform="translate(755.712891 0)"/>
    </g>
   </g>
   <g id="text_12">
    <!-- Reliable parsing -->
    <g style="fill: #262626" transform="translate(449.591953 551.709609) scale(0.13 -0.13)">
     <use xlink:href="#ArialMT-52"/>
     <use xlink:href="#ArialMT-65" transform="translate(72.216797 0)"/>
     <use xlink:href="#ArialMT-6c" transform="translate(127.832031 0)"/>
     <use xlink:href="#ArialMT-69" transform="translate(150.048828 0)"/>
     <use xlink:href="#ArialMT-61" transform="translate(172.265625 0)"/>
     <use xlink:href="#ArialMT-62" transform="translate(227.880859 0)"/>
     <use xlink:href="#ArialMT-6c" transform="translate(283.496094 0)"/>
     <use xlink:href="#ArialMT-65" transform="translate(305.712891 0)"/>
     <use xlink:href="#ArialMT-20" transform="translate(361.328125 0)"/>
     <use xlink:href="#ArialMT-70" transform="translate(389.111328 0)"/>
     <use xlink:href="#ArialMT-61" transform="translate(444.726562 0)"/>
     <use xlink:href="#ArialMT-72" transform="translate(500.341797 0)"/>
     <use xlink:href="#ArialMT-73" transform="translate(533.642578 0)"/>
     <use xlink:href="#ArialMT-69" transform="translate(583.642578 0)"/>
     <use xlink:href="#ArialMT-6e" transform="translate(605.859375 0)"/>
     <use xlink:href="#ArialMT-67" transform="translate(661.474609 0)"/>
    </g>
    <!-- Fail-fast validation -->
    <g style="fill: #262626" transform="translate(443.819141 569.333953) scale(0.13 -0.13)">
     <defs>
      <path id="ArialMT-2d" d="M 203 1375 
L 203 1941 
L 1931 1941 
L 1931 1375 
L 203 1375 
z
" transform="scale(0.015625)"/>
     </defs>
     <use xlink:href="#ArialMT-46"/>
     <use xlink:href="#ArialMT-61" transform="translate(61.083984 0)"/>
     <use xlink:href="#ArialMT-69" transform="translate(116.699219 0)"/>
     <use xlink:href="#ArialMT-6c" transform="translate(138.916016 0)"/>
     <use xlink:href="#ArialMT-2d" transform="translate(161.132812 0)"/>
     <use xlink:href="#ArialMT-66" transform="translate(194.433594 0)"/>
     <use xlink:href="#ArialMT-61" transform="translate(222.216797 0)"/>
     <use xlink:href="#ArialMT-73" transform="translate(277.832031 0)"/>
     <use xlink:href="#ArialMT-74" transform="translate(327.832031 0)"/>
     <use xlink:href="#ArialMT-20" transform="translate(355.615234 0)"/>
     <use xlink:href="#ArialMT-76" transform="translate(383.398438 0)"/>
     <use xlink:href="#ArialMT-61" transform="translate(433.398438 0)"/>
     <use xlink:href="#ArialMT-6c" transform="translate(489.013672 0)"/>
     <use xlink:href="#ArialMT-69" transform="translate(511.230469 0)"/>
     <use xlink:href="#ArialMT-64" transform="translate(533.447266 0)"/>
     <use xlink:href="#ArialMT-61" transform="translate(589.0625 0)"/>
     <use xlink:href="#ArialMT-74" transform="translate(644.677734 0)"/>
     <use xlink:href="#ArialMT-69" transform="translate(672.460938 0)"/>
     <use xlink:href="#ArialMT-6f" transform="translate(694.677734 0)"/>
     <use xlink:href="#ArialMT-6e" transform="translate(750.292969 0)"/>
    </g>
    <!-- Streaming support -->
    <g style="fill: #262626" transform="translate(443.092969 587.059453) scale(0.13 -0.13)">
     <use xlink:href="#ArialMT-53"/>
     <use xlink:href="#ArialMT-74" transform="translate(66.699219 0)"/>
     <use xlink:href="#ArialMT-72" transform="translate(94.482422 0)"/>
     <use xlink:href="#ArialMT-65" transform="translate(127.783203 0)"/>
     <use xlink:href="#ArialMT-61" transform="translate(183.398438 0)"/>
     <use xlink:href="#ArialMT-6d" transform="translate(239.013672 0)"/>
     <use xlink:href="#ArialMT-69" transform="translate(322.314453 0)"/>
     <use xlink:href="#ArialMT-6e" transform="translate(344.53125 0)"/>
     <use xlink:href="#ArialMT-67" transform="translate(400.146484 0)"/>
     <use xlink:href="#ArialMT-20" transform="translate(455.761719 0)"/>
     <use xlink:href="#ArialMT-73" transform="translate(483.544922 0)"/>
     <use xlink:href="#ArialMT-75" transform="translate(533.544922 0)"/>
     <use xlink:href="#ArialMT-70" transform="translate(589.160156 0)"/>
     <use xlink:href="#ArialMT-70" transform="translate(644.775391 0)"/>
     <use xlink:href="#ArialMT-6f" transform="translate(700.390625 0)"/>
     <use xlink:href="#ArialMT-72" transform="translate(756.005859 0)"/>
     <use xlink:href="#ArialMT-74" transform="translate(789.306641 0)"/>
    </g>
   </g>
   <g id="text_13">
    <!-- Software Developer -->
    <g style="fill: #262626" transform="translate(735.869643 466.845) scale(0.16 -0.16)">
     <defs>
      <path id="Arial-BoldMT-53" d="M 231 1491 
L 1131 1578 
Q 1213 1125 1461 912 
Q 1709 700 2131 700 
Q 2578 700 2804 889 
Q 3031 1078 3031 1331 
Q 3031 1494 2936 1608 
Q 2841 1722 2603 1806 
Q 2441 1863 1863 2006 
Q 1119 2191 819 2459 
Q 397 2838 397 3381 
Q 397 3731 595 4036 
Q 794 4341 1167 4500 
Q 1541 4659 2069 4659 
Q 2931 4659 3367 4281 
Q 3803 3903 3825 3272 
L 2900 3231 
Q 2841 3584 2645 3739 
Q 2450 3894 2059 3894 
Q 1656 3894 1428 3728 
Q 1281 3622 1281 3444 
Q 1281 3281 1419 3166 
Q 1594 3019 2269 2859 
Q 2944 2700 3267 2529 
Q 3591 2359 3773 2064 
Q 3956 1769 3956 1334 
Q 3956 941 3737 597 
Q 3519 253 3119 86 
Q 2719 -81 2122 -81 
Q 1253 -81 787 320 
Q 322 722 231 1491 
z
" transform="scale(0.015625)"/>
      <path id="Arial-BoldMT-66" d="M 75 3319 
L 563 3319 
L 563 3569 
Q 563 3988 652 4194 
Q 741 4400 980 4529 
Q 1219 4659 1584 4659 
Q 1959 4659 2319 4547 
L 2200 3934 
Q 1991 3984 1797 3984 
Q 1606 3984 1523 3895 
Q 1441 3806 1441 3553 
L 1441 3319 
L 2097 3319 
L 2097 2628 
L 1441 2628 
L 1441 0 
L 563 0 
L 563 2628 
L 75 2628 
L 75 3319 
z
" transform="scale(0.015625)"/>
      <path id="Arial-BoldMT-77" d="M 1078 0 
L 28 3319 
L 881 3319 
L 1503 1144 
L 2075 3319 
L 2922 3319 
L 3475 1144 
L 4109 3319 
L 4975 3319 
L 3909 0 
L 3066 0 
L 2494 2134 
L 1931 0 
L 1078 0 
z
" transform="scale(0.015625)"/>
     </defs>
     <use xlink:href="#Arial-BoldMT-53"/>
     <use xlink:href="#Arial-BoldMT-6f" transform="translate(66.699219 0)"/>
     <use xlink:href="#Arial-BoldMT-66" transform="translate(127.783203 0)"/>
     <use xlink:href="#Arial-BoldMT-74" transform="translate(161.083984 0)"/>
     <use xlink:href="#Arial-BoldMT-77" transform="translate(194.384766 0)"/>
     <use xlink:href="#Arial-BoldMT-61" transform="translate(272.167969 0)"/>
     <use xlink:href="#Arial-BoldMT-72" transform="translate(327.783203 0)"/>
     <use xlink:href="#Arial-BoldMT-65" transform="translate(366.699219 0)"/>
     <use xlink:href="#Arial-BoldMT-20" transform="translate(422.314453 0)"/>
     <use xlink:href="#Arial-BoldMT-44" transform="translate(450.097656 0)"/>
     <use xlink:href="#Arial-BoldMT-65" transform="translate(522.314453 0)"/>
     <use xlink:href="#Arial-BoldMT-76" transform="translate(577.929688 0)"/>
     <use xlink:href="#Arial-BoldMT-65" transform="translate(633.544922 0)"/>
     <use xlink:href="#Arial-BoldMT-6c" transform="translate(689.160156 0)"/>
     <use xlink:href="#Arial-BoldMT-6f" transform="translate(716.943359 0)"/>
     <use xlink:href="#Arial-BoldMT-70" transform="translate(778.027344 0)"/>
     <use xlink:href="#Arial-BoldMT-65" transform="translate(839.111328 0)"/>
     <use xlink:href="#Arial-BoldMT-72" transform="translate(894.726562 0)"/>
    </g>
   </g>
   <g id="text_14">
    <!-- Drop-in middleware -->
    <g style="fill: #262626" transform="translate(754.206205 551.912531) scale(0.13 -0.13)">
     <defs>
      <path id="ArialMT-44" d="M 494 0 
L 494 4581 
L 2072 4581 
Q 2606 4581 2888 4516 
Q 3281 4425 3559 4188 
Q 3922 3881 4101 3404 
Q 4281 2928 4281 2316 
Q 4281 1794 4159 1391 
Q 4038 988 3847 723 
Q 3656 459 3429 307 
Q 3203 156 2883 78 
Q 2563 0 2147 0 
L 494 0 
z
M 1100 541 
L 2078 541 
Q 2531 541 2789 625 
Q 3047 709 3200 863 
Q 3416 1078 3536 1442 
Q 3656 1806 3656 2325 
Q 3656 3044 3420 3430 
Q 3184 3816 2847 3947 
Q 2603 4041 2063 4041 
L 1100 4041 
L 1100 541 
z
" transform="scale(0.015625)"/>
      <path id="ArialMT-77" d="M 1034 0 
L 19 3319 
L 600 3319 
L 1128 1403 
L 1325 691 
Q 1338 744 1497 1375 
L 2025 3319 
L 2603 3319 
L 3100 1394 
L 3266 759 
L 3456 1400 
L 4025 3319 
L 4572 3319 
L 3534 0 
L 2950 0 
L 2422 1988 
L 2294 2553 
L 1622 0 
L 1034 0 
z
" transform="scale(0.015625)"/>
     </defs>
     <use xlink:href="#ArialMT-44"/>
     <use xlink:href="#ArialMT-72" transform="translate(72.216797 0)"/>
     <use xlink:href="#ArialMT-6f" transform="translate(105.517578 0)"/>
     <use xlink:href="#ArialMT-70" transform="translate(161.132812 0)"/>
     <use xlink:href="#ArialMT-2d" transform="translate(216.748047 0)"/>
     <use xlink:href="#ArialMT-69" transform="translate(250.048828 0)"/>
     <use xlink:href="#ArialMT-6e" transform="translate(272.265625 0)"/>
     <use xlink:href="#ArialMT-20" transform="translate(327.880859 0)"/>
     <use xlink:href="#ArialMT-6d" transform="translate(355.664062 0)"/>
     <use xlink:href="#ArialMT-69" transform="translate(438.964844 0)"/>
     <use xlink:href="#ArialMT-64" transform="translate(461.181641 0)"/>
     <use xlink:href="#ArialMT-64" transform="translate(516.796875 0)"/>
     <use xlink:href="#ArialMT-6c" transform="translate(572.412109 0)"/>
     <use xlink:href="#ArialMT-65" transform="translate(594.628906 0)"/>
     <use xlink:href="#ArialMT-77" transform="translate(650.244141 0)"/>
     <use xlink:href="#ArialMT-61" transform="translate(722.460938 0)"/>
     <use xlink:href="#ArialMT-72" transform="translate(778.076172 0)"/>
     <use xlink:href="#ArialMT-65" transform="translate(811.376953 0)"/>
    </g>
    <!-- No upstream changes -->
    <g style="fill: #262626" transform="translate(746.970893 569.384531) scale(0.13 -0.13)">
     <defs>
      <path id="ArialMT-4e" d="M 488 0 
L 488 4581 
L 1109 4581 
L 3516 984 
L 3516 4581 
L 4097 4581 
L 4097 0 
L 3475 0 
L 1069 3600 
L 1069 0 
L 488 0 
z
" transform="scale(0.015625)"/>
      <path id="ArialMT-68" d="M 422 0 
L 422 4581 
L 984 4581 
L 984 2938 
Q 1378 3394 1978 3394 
Q 2347 3394 2619 3248 
Q 2891 3103 3008 2847 
Q 3125 2591 3125 2103 
L 3125 0 
L 2563 0 
L 2563 2103 
Q 2563 2525 2380 2717 
Q 2197 2909 1863 2909 
Q 1613 2909 1392 2779 
Q 1172 2650 1078 2428 
Q 984 2206 984 1816 
L 984 0 
L 422 0 
z
" transform="scale(0.015625)"/>
     </defs>
     <use xlink:href="#ArialMT-4e"/>
     <use xlink:href="#ArialMT-6f" transform="translate(72.216797 0)"/>
     <use xlink:href="#ArialMT-20" transform="translate(127.832031 0)"/>
     <use xlink:href="#ArialMT-75" transform="translate(155.615234 0)"/>
     <use xlink:href="#ArialMT-70" transform="translate(211.230469 0)"/>
     <use xlink:href="#ArialMT-73" transform="translate(266.845703 0)"/>
     <use xlink:href="#ArialMT-74" transform="translate(316.845703 0)"/>
     <use xlink:href="#ArialMT-72" transform="translate(344.628906 0)"/>
     <use xlink:href="#ArialMT-65" transform="translate(377.929688 0)"/>
     <use xlink:href="#ArialMT-61" transform="translate(433.544922 0)"/>
     <use xlink:href="#ArialMT-6d" transform="translate(489.160156 0)"/>
     <use xlink:href="#ArialMT-20" transform="translate(572.460938 0)"/>
     <use xlink:href="#ArialMT-63" transform="translate(600.244141 0)"/>
     <use xlink:href="#ArialMT-68" transform="translate(650.244141 0)"/>
     <use xlink:href="#ArialMT-61" transform="translate(705.859375 0)"/>
     <use xlink:href="#ArialMT-6e" transform="translate(761.474609 0)"/>
     <use xlink:href="#ArialMT-67" transform="translate(817.089844 0)"/>
     <use xlink:href="#ArialMT-65" transform="translate(872.705078 0)"/>
     <use xlink:href="#ArialMT-73" transform="translate(928.320312 0)"/>
    </g>
    <!-- Reversible adoption -->
    <g style="fill: #262626" transform="translate(753.108315 587.008875) scale(0.13 -0.13)">
     <use xlink:href="#ArialMT-52"/>
     <use xlink:href="#ArialMT-65" transform="translate(72.216797 0)"/>
     <use xlink:href="#ArialMT-76" transform="translate(127.832031 0)"/>
     <use xlink:href="#ArialMT-65" transform="translate(177.832031 0)"/>
     <use xlink:href="#ArialMT-72" transform="translate(233.447266 0)"/>
     <use xlink:href="#ArialMT-73" transform="translate(266.748047 0)"/>
     <use xlink:href="#ArialMT-69" transform="translate(316.748047 0)"/>
     <use xlink:href="#ArialMT-62" transform="translate(338.964844 0)"/>
     <use xlink:href="#ArialMT-6c" transform="translate(394.580078 0)"/>
     <use xlink:href="#ArialMT-65" transform="translate(416.796875 0)"/>
     <use xlink:href="#ArialMT-20" transform="translate(472.412109 0)"/>
     <use xlink:href="#ArialMT-61" transform="translate(500.195312 0)"/>
     <use xlink:href="#ArialMT-64" transform="translate(555.810547 0)"/>
     <use xlink:href="#ArialMT-6f" transform="translate(611.425781 0)"/>
     <use xlink:href="#ArialMT-70" transform="translate(667.041016 0)"/>
     <use xlink:href="#ArialMT-74" transform="translate(722.65625 0)"/>
     <use xlink:href="#ArialMT-69" transform="translate(750.439453 0)"/>
     <use xlink:href="#ArialMT-6f" transform="translate(772.65625 0)"/>
     <use xlink:href="#ArialMT-6e" transform="translate(828.271484 0)"/>
    </g>
   </g>
  </g>
 </g>
 <defs>
  <clipPath id="pe0f6e2ec02">
   <rect x="7.2" y="7.2" width="978" height="690"/>
  </clipPath>
 </defs>
</svg>
